<?xml version="1.0" encoding="utf-8"?>
<!-- Generator: Adobe Illustrator 22.1.0, SVG Export Plug-In . SVG Version: 6.00 Build 0)  -->
<svg version="1.1" id="layer_1" xmlns="http://www.w3.org/2000/svg" xmlns:xlink="http://www.w3.org/1999/xlink" x="0px" y="0px"
	 viewBox="0 0 1400 1400" style="enable-background:new 0 0 1400 1400;" xml:space="preserve">
<style type="text/css">
	.st0{fill:#EE4823;}
	.st1{fill:#A71E23;}
	.st2{fill:#F6E7CB;}
	.st3{fill:#DCA561;}
	.st4{fill:#6BB5E4;}
	.st5{fill:#7AA2BF;}
	.st6{fill:#1D1825;}
	.st7{fill:#3C5E61;}
	.st8{fill:#274A4C;}
	.st9{fill:#F8DE88;}
	.st10{fill:#3E364A;}
	.st11{fill:#EDB67B;}
	.st12{fill:#FBE27C;}
	.st13{fill:#FFF1BA;}
	.st14{fill:#E0A65C;}
	.st15{fill:#D68B55;}
	.st16{fill:#42181B;}
	.st17{fill:none;stroke:#231F20;}
	.st18{fill:#988B7A;}
	.st19{fill:#CBBDA9;}
	.st20{fill:#2D5357;}
</style>
<g>
	<g>
		<rect x="0" class="st0" width="1400" height="1400"/>
		<path class="st1" d="M1178.8,302.4c-61.6-98-182-67.2-252-14c33.6-148.4-159.6-36.4-252,114.8c0,0-64.4-19.6-123.2,61.6
			C470.4,224,210,271.6,70,506.8c0,0,196,403.2,327.6,408.8c131.6,5.6,442.4-19.6,537.6-30.8c89.6-10.5,377.5-120.2,464.8-156.5
			V48.4C1335,73.7,1224.8,139.6,1178.8,302.4z"/>
		<path class="st2" d="M1324.4,543.2c-137.2-282.8-478.8-70-700,106.4c14-53.2-39.2-84-145.6-22.4C577,306.8,119.6,351.2,0,573.4
			V1400h1400V457.1C1365.7,426.4,1331.6,473.5,1324.4,543.2z"/>
		<path class="st2" d="M1066.8,331.8c-46.2,11.2-110.6,82.6-67.2,68.6c14.9-4.8,86.8-28,117.6-22.4
			C1148,383.6,1113,320.6,1066.8,331.8z"/>
		<path class="st2" d="M1339.3,398.5c-19.6,14-18.2,50.4-7,42c0,0,19.6-23.8,33.6-22.4S1358.9,384.5,1339.3,398.5z"/>
		<path class="st1" d="M411.6,458.3c-37.2-20.2-89.6-3.7-89.6-3.7c78.4,16.8,91.5,56,98.9,67.2C428.4,532.9,456.4,482.5,411.6,458.3
			z"/>
		<path class="st3" d="M0,1281.5V1400h1400v-155.3c-172.2-61.8-402.3-99.5-655.2-99.5C445,1145.2,177.2,1198.2,0,1281.5z"/>
		<path class="st1" d="M770,193.2c-33.6,33.6-56,95.2-36.4,78.4c20.1-17.2,47.6-44.8,70-56C826,204.4,803.6,159.6,770,193.2z"/>
	</g>
	<g>
		<path class="st4" d="M447.1,930.5c-132.5-50.4,18.7,48.5-186.7,35.5c-149.2-9.5-166.1,1.9-24.3,22.4
			c141.9,20.5,231.5,26.1,171.7,50.4c-59.7,24.3,33.6,39.2,164.3,7.5l11.2-56C583.3,990.3,579.6,980.9,447.1,930.5z"/>
		<path class="st5" d="M297.7,900.7c-35.5-9.3-18.6,21,1.9,22.4C327.6,924.9,333.2,910,297.7,900.7z"/>
		<path class="st5" d="M290.3,1029.5c-55.4-17-80.3,39.2-16.8,39.2S338.8,1044.4,290.3,1029.5z"/>
		<g>
			<path class="st6" d="M1026.9,753.5c-21-26-54.2-54.4-101.7-62.2l-2.3,13.8c43,7.1,73.3,32.8,93.1,57.2
				c9.9,12.2,17,23.9,21.7,32.6c2.3,4.3,4,7.9,5.2,10.4c1.1,2.5,1.6,3.7,1.6,3.7l13.1-5.1h0C1057.3,803.4,1047.9,779.5,1026.9,753.5
				z"/>
		</g>
		<path class="st6" d="M772.8,748.3c-14.9,23.1-17.7,48.8-13.1,68.4c4.7,19.6,38.3,70,38.3,70s21.5-95.2,22.4-110.1
			C821.3,761.6,787.7,725.2,772.8,748.3z"/>
		<path class="st7" d="M1053.7,934.3c0,0,11-40.4-13.5-92.9c-24.5-52.5-61.6-84.7-61.6-84.7s-12.6-62.3-63.7-82.6
			c0-15.4-4.9-28.7-4.9-28.7l2.1-20.3c0,0-9.8-11.9-17.5-9.1s-83.6,33.4-86.8,37.8c-2.3,3.3-15.4,3.3-15.4,3.3l-32.7,92.4
			c0,0,11.2,10.3,31.7,29.9c-17.7,60.7,19.6,235.2,19.6,235.2s-14,15.9-26.1,25.2c-12.1,9.3-16.8,27.1-21.5,29.9
			s-16.8,19.6-11.2,35.5c23.3,50.4,56,54.1,89.1,37.3c0,0-2.8,15.4,12.6,60.2c-8.4,50.4-21,148.4-19.6,154
			c1.4,5.6,11.2,22.4,11.2,22.4c-2,6.5-3.8,13.6-5.5,21h269c1.5-15.1,2.7-30.9,3.4-47.6c0,0,29.9-56.3,29.9-121.3
			c0-74.7-16.8-102.7-37.3-166.1C1084.5,1001.5,1053.7,934.3,1053.7,934.3z"/>
		<path class="st8" d="M984.7,1117.7c0,0-55.1-22.9-95.5-15.1c-23.2,25.5-47.8,39.8-47.8,39.8s-2.8,15.4,12.6,60.2
			c24.3-4.2,39.2-11.7,39.2-11.7l35.5,9.3c0,0,8.4,115.7,8.4,122.3c0,6.5,18.7-83.1,19.6-123.2c72.6,16.6,150.7,72.5,177.7,93.1
			c4.6-18.2,8-39.3,8-61.3c0-13.6-0.6-25.7-1.6-36.7C1104.5,1163.3,1034.1,1128.8,984.7,1117.7z"/>
		<path class="st8" d="M841.4,1142.4l-12.3,5.2C833.2,1146.2,837.3,1144.5,841.4,1142.4z"/>
		<path class="st9" d="M808.9,1004.1c1.3,6.6,2.1,10.4,2.1,10.4s-9.1,10.3-19,19.2c6-0.8,18.2-2.1,34.1-2.1
			c29.8,0,72.3,4.7,110.9,25.2l13.1-24.8c-44.5-23.5-91.3-28.4-124-28.4C819.9,1003.6,814.1,1003.8,808.9,1004.1z"/>
		<path class="st9" d="M799.6,952.8c1.7,10.1,3.3,19.4,4.8,27.6c6.4-0.8,18-2,33-2c29.8,0,72.3,4.7,110.9,25.2l13.1-24.8
			c-44.5-23.5-91.3-28.4-123.9-28.4C820.1,950.4,806.7,951.8,799.6,952.8z"/>
		<path class="st8" d="M962.3,835.3c0.7,17.7,6.8,137.6-38.6,220c21.8,23.6,54.5,41.3,54.5,41.3
			C1044.4,951.1,960.4,787.7,962.3,835.3z"/>
		<path class="st10" d="M639.8,683.7c-9.8,11.2-18.2,42.5-14.5,43.9c3.7,1.4,22.2,6.1,22.2,6.1l5.4-46.2
			C652.9,687.4,641.6,681.6,639.8,683.7z"/>
		<path class="st8" d="M867.1,597.8l-28.5-28L820.4,644c0,0,22.4,22.4,25.2,21c2.8-1.4,32.9-30.1,29.4-42.7S867.1,597.8,867.1,597.8
			z"/>
		<path class="st11" d="M683.2,568.4c-21,6.1-30.3,7.5-31.7,30.8l-1.4,87.7c0,0,45.7,25.2,66.3,24.7s36.9-1.4,42.5-12.6
			c5.6-11.2,21-100.3,17.3-103.6C772.3,592.2,704.2,562.3,683.2,568.4z"/>
		<path class="st6" d="M925.4,562.8c0,0-98.5-36.4-99.9-36.9c-1.4-0.5-50.4,53.2-50.4,53.2l17.7,107.8l39.2-47.6
			c0,0,11.7-21,11.7-57.9c15.4,6.5,23.3,16.3,23.3,16.3s19.1-1.9,43.4-10.3C934.7,579.1,935.7,571.2,925.4,562.8z"/>
		<path class="st10" d="M651,630.5l-0.9,56.4c0,0,45.7,25.2,66.3,24.7s36.9-1.4,42.5-12.6c1.8-3.7,4.7-15.7,7.6-30.4
			c-1-5.9-2.8-11.8-5.3-17.7C708.7,617.7,678.6,619.3,651,630.5z"/>
		<path class="st6" d="M788.2,623c0-5.6,2.1-31.5,2.1-31.5s-37.8-21.7-88.9-29.4c-51.1-7.7-53.9,25.2-53.9,25.2
			c1.6,9.1,4.3,17.2,4.4,14.2c3.3-57.4,118.5-2.8,118.5-2.8s-6.1,41.8-17.3,74.7c-11.2,32.9-31.5,33.6-67.2,7.7
			c-35.7-25.9-38.5-4.2-42.7,52.5c-2.2,29.3-6.3,44.8,13.3,58.8c29.7,21.2,60.2,0,58.8-32.2c23.1,16.1,47.3,5.9,57.4-11.9
			c11.9-21,25.9-76.3,28.7-87.5S802.2,632.1,788.2,623z"/>
		<path class="st12" d="M920.5,546.7c-7.7-4.9-39.9-16.1-39.9-16.1c-12.6-91.7-72.4-136.5-158.2-114.8
			c-66.5,16.8-66.5,70-66.5,130.2c0,0,176.4-23.8,269.5,16.8C930.9,565.2,928.2,551.6,920.5,546.7z"/>
		<path class="st13" d="M833,534.8c-2.8-1.4-72.8-4.9-75.6-6.3c-2.8-1.4-11.9-11.9-17.5-12.6c-5.6-0.7-105.7,9.8-105.7,9.8
			s-9.8,100.1-9.1,104.3s9.8,9.1,9.8,9.1s-10.5-13.3,6.3-16.8c16.8-3.5,103.6,4.9,126-13.3c22.4-18.2,65.8-63.7,65.8-63.7
			S835.8,536.2,833,534.8z"/>
		<path class="st14" d="M833,534.8c-2.8-1.4-72.8-4.9-75.6-6.3c-2.8-1.4-11.9-11.9-17.5-12.6c-3.9-0.5-54.1,4.5-83.9,7.5
			c-0.1,7.4-0.1,14.9-0.1,22.6c0,0,91.8-12.4,177.9-4C834.3,539.2,834.7,535.6,833,534.8z"/>
		<path class="st15" d="M683.2,568.4c-21,6.1-30.3,7.5-31.7,30.8l-0.4,22.3c28.5-0.9,96.6,3.4,116.1-12.5c2.8-2.3,6-5.1,9.4-8.1
			c0.1-3,0-5-0.5-5.4C772.3,592.2,704.2,562.3,683.2,568.4z"/>
		<path class="st14" d="M647.5,587.3c1.6,9.1,4.3,17.2,4.4,14.2c3.3-57.4,118.5-2.8,118.5-2.8s-0.5,3.3-1.4,8.7
			c5.5-4.6,12.2-10.7,19-17.2c-8.8-4.7-42.8-21.6-86.7-28.2C650.3,554.4,647.5,587.3,647.5,587.3z"/>
		<path class="st16" d="M723.3,613.3c-1.1,4.8,5.7,5.7,6.1,2C729.8,611.7,725.3,604.4,723.3,613.3z"/>
		<path class="st16" d="M667.7,613.5c-0.4,4.9,6.4,4.1,5.3-1.9C671.9,605.5,668.1,608.5,667.7,613.5z"/>
		<path class="st16" d="M731.3,596.4c-8.9-3.7-21.5,2.3-12.6,5.1c2.7,0.9,13.5,2.3,19.1,4.2C743.4,607.6,740.1,600.1,731.3,596.4z"
			/>
		<path class="st16" d="M673.8,592.2c-8.4,2.1-15.4,11.2-9.5,9.8c4.3-1,11.9-2.5,15-2.8C682.5,598.8,682.1,590.1,673.8,592.2z"/>
		<path class="st17" d="M366.8,932.4"/>
		<path class="st18" d="M1230,1093l-17.1,4.6c-8.2,2.2-13.1,10.7-10.9,18.9c2.2,8.2,10.7,13.1,18.9,10.9l17.1-4.6
			c8.2-2.2,13.1-10.7,10.9-18.9C1246.7,1095.7,1238.2,1090.8,1230,1093z"/>
		<path class="st6" d="M1062.1,820.4c-14-24.3-46.4-24.5-48.5-10.5c-2.1,14-6.5,106.6,5.6,142.1c12.1,35.5,86.8,160.5,98,160.5
			c11.2,0,15.9-14,9.3-42S1076.1,844.7,1062.1,820.4z"/>
		<g>
			<path class="st6" d="M643.5,849.4c0-22.1,4.1-41.6,8.1-55.4c2-6.9,4.1-12.4,5.6-16.2c0.8-1.9,1.4-3.3,1.8-4.3
				c0.4-1,0.6-1.3,0.6-1.3l-12.6-6.2l0,0c-0.2,0.6-17.5,35.7-17.6,83.4c-0.2,53.3,22.6,122.5,113.8,172.2l6.7-12.3
				C663,961.5,643.7,898.9,643.5,849.4z"/>
		</g>
		<path class="st6" d="M1259.1,1107.9c-10.3,1.9-48.5,17.7-62.5,28c-4.1,3-3.7,11.2,0,13.1s71.9,7.5,77.5,2.8
			C1279.6,1147.1,1269.3,1106,1259.1,1107.9z"/>
		<path class="st10" d="M738.3,716.8c-9.5,20.5,17.7,55.1,38.3,21.5C797.1,704.7,756.9,676.7,738.3,716.8z"/>
		<path class="st6" d="M985.3,737.5c-27.9-22.3-59.7-36.9-92.7-36.9c-31.1-0.1-62.5,13.5-89.8,43.1c-29.3,31.6-39.5,66.1-39.4,96.8
			c0.2,53.4,28.8,95.2,34.8,103.7c-3.7-23.7-7.4-50.7-9.6-76.6c-1.8-8.6-2.9-17.7-2.8-27c0.1-26,8-53.9,33.4-81.6
			c24.1-25.9,48.7-35.8,73.3-35.9c26.2,0,53.5,11.8,78.7,32c25.2,20.1,48,48.3,65.1,79.2l19.6-10.9
			C1037.6,790.2,1013.3,759.9,985.3,737.5z"/>
		<path class="st10" d="M574,970.9c-8.4-1.4-36.4,53.2-14,91c7.7,2.1,65-13.3,65-13.3l21.1-36.4l-19.5-19.6
			C626.6,992.6,582.4,972.3,574,970.9z"/>
		<path class="st19" d="M1223.8,748.9c-12.2-49.1-62-79.1-111.1-66.9c-49.2,12.2-79.1,62-66.9,111.1l60.6,243.9
			c12.2,49.1,62,79.1,111.1,66.9c49.2-12.2,79.1-62,66.9-111.1L1223.8,748.9z"/>
		<path class="st20" d="M1139.5,897.8c-22.1,4.8-40.8,7.4-53.8,8.8c-4.5,0.5-8.4,0.8-11.4,1.1l13.7,55c33.3-3.3,103-13.6,177.2-47.4
			l-13.8-55.3C1211.6,879.1,1171.9,890.8,1139.5,897.8z"/>
		<path class="st6" d="M1102,796.4c-17.6,4.1-31.4,6.4-40.6,7.6c-4.6,0.6-8.2,1-10.5,1.2c-0.9,0.1-1.5,0.1-2.1,0.2l5.5,22
			c18.9-1.8,84.2-10.7,176.2-51.3l-5.5-22.1C1174.7,776.6,1132.6,789.3,1102,796.4z"/>
		<path class="st18" d="M1282.9,986.5c-51.6,44.9-143.1,56.3-173.9,59c15.5,44,62.3,69.9,108.6,58.4c49.2-12.2,79.1-62,66.9-111.1
			L1282.9,986.5z"/>
		<path class="st6" d="M1071.5,919.9l-11.3,8.3c48.8,66.5,82.5,120.2,104,157.2c10.7,18.5,18.4,32.8,23.4,42.5
			c2.5,4.8,4.3,8.5,5.5,11c1.2,2.5,1.7,3.6,1.7,3.6l12.8-5.8l0,0C1207.4,1136.3,1169.8,1053.7,1071.5,919.9z"/>
		<path class="st6" d="M625,1048.6c0,0,0.2,0,1,0c8,0.3,61.8,3.2,138.9,19.7c4.3-5,9.1-20.2,20.1-28.6c7.5-5.8,15.7-14.1,20.9-19.5
			c-104.9-25.3-177.8-27.5-179.2-27.6L625,1048.6z"/>
		<path class="st6" d="M923.7,1055.3c-7.7,12.7-19.5,30.4-34.5,47.3c2.7,0.9,5.5,1.9,8.2,2.8c136.9,47.8,297.9,135.2,419.3,294.6
			h65.1C1267.2,1222.7,1070.9,1108,923.7,1055.3z"/>
	</g>
</g>
</svg>
