<?xml version="1.0" encoding="utf-8"?>
<!-- Generator: Adobe Illustrator 22.1.0, SVG Export Plug-In . SVG Version: 6.00 Build 0)  -->
<svg version="1.1" id="layer_1" xmlns="http://www.w3.org/2000/svg" xmlns:xlink="http://www.w3.org/1999/xlink" x="0px" y="0px"
	 viewBox="0 0 1400 1400" style="enable-background:new 0 0 1400 1400;" xml:space="preserve">
<style type="text/css">
	.st0{fill:#FFF9E7;}
	.st1{fill:#ECEEDF;}
	.st2{fill:#D8D0D0;}
	.st3{fill:#A6B29A;}
	.st4{fill:#FBB03B;}
	.st5{fill:#A0C1B8;}
	.st6{fill:#828C76;}
	.st7{fill:#C68734;}
	.st8{fill:#FFE4A8;}
	.st9{fill:#ACE1E2;}
	.st10{fill:#FBF4DC;}
	.st11{fill:#D6C49F;}
	.st12{fill:#323747;}
	.st13{fill:#44495E;}
	.st14{fill:#E8AD6A;}
	.st15{fill:#C18153;}
	.st16{fill:#2A303C;}
	.st17{fill:#BC9578;}
	.st18{fill:#A35F49;}
	.st19{fill:#AA673A;}
	.st20{fill:#8E5732;}
	.st21{fill:#6C748E;}
	.st22{fill:#FFFAF0;}
</style>
<g>
	<rect x="0" class="st0" width="1400" height="1400"/>
	<g>
		<g>
			<path class="st1" d="M415.7,515.3C520.8,752.2,507,840,312.5,796.9c-265.7-58.9-99.8,395.8,120.1,444.9
				c396.3,88.4,1099.5-158.2,642.8-916.8C771.1-180.5,238.9,116.9,415.7,515.3z"/>
			<path class="st2" d="M1037.2,267.3c-6.3,0.4-12.7,1-19.4,1.8c-262.8,31-241.5,214.4-446.2,183.5c-110.2-16.6-146-1-172.6,19.2
				c4.6,14.3,10.1,28.8,16.6,43.4c3.3,7.4,6.5,14.7,9.5,21.9c112.4-4.9,218.7-64.2,339.2,25.4c160.7,119.5,316,48.3,429.9,87
				c5.7,1.9,11.6,3,17.6,3.3c-19.5-96.4-63-205.5-136.6-327.8C1063,304.4,1050.3,285.3,1037.2,267.3z"/>
			<path class="st3" d="M415.7,515.3C520.8,752.2,507,840,312.5,796.9c-191.5-42.5-158.8,182-43.2,329h442.4V216.7H415
				C372.5,297.4,365.6,402.3,415.7,515.3z"/>
			<path class="st4" d="M415.7,515.3C520.8,752.2,507,840,312.5,796.9c-196.8-43.6-156.8,194.6-33.4,341l307.4-145.4
				c96.4-155,56.7-297.9-68.5-195.6c92.2-174.2-3.4-144.6-3.4-144.6s147.2-276.6-7.6-318C527.3,100,713.4,84.8,711.7,135.5
				c24.5-9.7,36.9-45.9,24-73.5C498.4,25.3,296.9,247.5,415.7,515.3z"/>
			<path class="st5" d="M234.5,1075.2c47.6,79.4,119.4,148.9,198.1,166.5c227.4,50.7,555.9-8.8,708.2-212.2
				C835.1,807.8,464.4,955.6,234.5,1075.2z"/>
			<rect x="524" y="286.1" class="st6" width="125.2" height="125.2"/>
			<rect x="524" y="459.4" class="st6" width="125.2" height="125.2"/>
			<path class="st7" d="M878.3,313.1c108.3-152.2-76.1-153.9-219.9-27.1c28.8-91.3-3.4-84.6-66,18.6c0,0,66,64.3,5.2,170.8
				c91.5,1.6,68.3,81.3,68.3,81.3s17.8,6.8,30.4,0c0,0,51.6-30.4,0-72.7c64.3-77.8,100.6-30.4,72.7,0
				c-27.9,30.4,29.6-1.7,102.3-72.7S915.5,304.7,878.3,313.1z"/>
			<path class="st4" d="M658.4,286.1c21.1-66.9,9.4-81.2-22.9-43.4c43-43.4-21,97.9-21,97.9c11.5,29.3,17,75.5-16.8,134.9
				c91.5,1.6,68.3,81.3,68.3,81.3s3.6,1.4,8.7,2.3c40.1-9.6,18.8-76.5-25.7-99.5c153.1-120.9,161.5,5.9,116.6,35.5
				c11.9-3.9,51-31.4,97.7-75.9c0,0,0,0,0,0c98.5-97.1-46-119.4-197.4-41.6c95.6-186.1,230.9-171.7,241.8-128.6
				c0.3,1.3,0.7,2.4,1.1,3.5C929.5,163.6,779.6,179.2,658.4,286.1z"/>
			<path class="st4" d="M905.4,194.7c0,0,21.1,5.9,21.1,33.8C975.6,194.7,928.2,190.5,905.4,194.7z"/>
			<path class="st8" d="M632.2,360.5c0,0,22.8-31.3-19.5-41.4c15.2,22.8-9.3,48.2-9.3,48.2s34.7-5.9,46.3,9.9
				C649.8,377.2,654.2,362.2,632.2,360.5z"/>
			<path class="st8" d="M592.5,446.8c0,0,26.2-5.1,35.5,22.8C649.1,411.2,606,431.5,592.5,446.8z"/>
			<path class="st4" d="M193.5,732.6c-32.6,20.8-11.5,74.7-5.5,65.9c9.5-14,41.7-27,62.8-28.7C271.9,768.1,237.2,704.7,193.5,732.6z
				"/>
		</g>
		<g>
			<path class="st4" d="M1050.9,705.7L1050.9,705.7c-39.5,0-71.8,32.3-71.8,71.8v289.2c0,39.5,32.3,71.8,71.8,71.8h0
				c39.5,0,71.8-32.3,71.8-71.8V777.5C1122.7,738,1090.4,705.7,1050.9,705.7z"/>
			<g>
				<path class="st9" d="M1073.7,1219.8c-54.1-5.1-50.6,61.5,0,57.5C1181.9,1268.8,1127.8,1224.8,1073.7,1219.8z"/>
				<path class="st5" d="M516.8,1162.9c-521.1,50.8-63.4,227.2,305.9,169.5C1213.2,1271.5,1037.9,1112.1,516.8,1162.9z"/>
				<path class="st10" d="M1019.6,697.1l-23.7-31.3c0,0-31.3-31.3-50.7-61.7c-19.5-30.4-65.1-39.7-65.1-39.7s-36.4,15.2-32,33.4
					S820,676,820,676s99.8,49.1,153.9,61.7c54.1,12.7,63.4-8.5,58.4-19.5C1027.2,707.2,1019.6,697.1,1019.6,697.1z"/>
				<path class="st11" d="M921.4,634.5c4.2,0.8,35.5,13.7,39.7,12.7l2.5-12.7c0,0-18.6-4.2-29.6-7.6
					C923.1,623.5,917.2,633.7,921.4,634.5z"/>
				<path class="st11" d="M933.3,694.6c0,0,5.1-7.2,42.2-11.4c-32.2-8.9-50.7,6.3-55.8,3.8c-5.1-2.5-33-13.5-39-17.6l1.8-23
					l-31.3-4.2c0,0-17.8,15.2-16.2,33.5c1.6,18.3,80.4,47.7,80.4,47.7s60.1,9,114.1-11.6c-8.5-2.3-24.5-8.7-49-11.3
					C956.1,697.9,933.3,694.6,933.3,694.6z"/>
				<g>
					<path class="st12" d="M919.6,656.1c0.8,0.4,19.9,9.7,51.8,9.7v-8.5c-29.8,0-47.8-8.8-48-8.9L919.6,656.1z"/>
				</g>
				<path class="st12" d="M926.1,591.1c0,0,13.9,55.3-43.6,95.8c-1.7,2.5,5.1,3.4,5.1,3.4s48.2-28.8,53-85.2
					C941.7,602.4,926.1,591.1,926.1,591.1z"/>
				<path class="st8" d="M850.8,591c-31.7,18.2-27.5,30-0.4,35.9c27.1,5.9,64.3,6.8,63.4-14.4C912.9,588,882.5,572.8,850.8,591z"/>
				<path class="st13" d="M868.9,643.1c0.3,0.2,0.1-0.1,0.1-0.1S869,643,868.9,643.1z"/>
				<path class="st13" d="M830.1,627.7c0,0-2.5,3.4-7.6,6.8c-6.1,2.4-9.3,5.4-11.8,7.6c-7.3,6.5-3.4,11-3.4,11l26.2,16.2
					c7.6-3.3,14.4-10.3,14.4-10.3s3.5-0.3,5.1-0.8c2.4-0.8,14.8-13.9,16-15.1c-0.6-0.3-3.1-2.5-13.4-12.8
					C840.3,615.1,830.1,627.7,830.1,627.7z"/>
				<path class="st14" d="M874.1,586.3l-31.3,1.7l-11,30.3c0,0,13.5,13.7,22.8,4.4c9.3-9.3,36.4-36.4,36.4-36.4
					C885.4,583.8,874.1,586.3,874.1,586.3z"/>
				
					<ellipse transform="matrix(0.9917 -0.1285 0.1285 0.9917 -78.2169 110.8531)" class="st12" cx="820" cy="661.6" rx="14.4" ry="18.6"/>
				<path class="st15" d="M850.8,591c-1.2,0.7-2.3,1.3-3.3,2c-0.8,1.9-4.1,9-4.7,11.1c11-11.8,24.5-16.1,40.3-15.3
					c24.4,1.1,30.7,23.8,30.7,23.8C912.9,588,882.5,572.8,850.8,591z"/>
				<path class="st13" d="M862.2,614.2c-27.4-5.5-28.8,4.2-28.8,4.2s-3.4,3.4-3.4,9.3c38.1,1.7,41.4,54.1,41.4,54.1
					s30.4-41.4,37.2-50.7c6.8-9.3,4.2-18.6,4.2-18.6S904.5,622.7,862.2,614.2z"/>
				<path class="st12" d="M894.4,617.5c-7.5,7.4-21.7,21.5-32,32.3c8,15,9.1,32.1,9.1,32.1s30.4-41.4,37.2-50.7
					c6.8-9.3,4.2-18.6,4.2-18.6S909.3,617,894.4,617.5z"/>
				<path class="st10" d="M951.5,553.7c-9.3-7.6-79.5-38.1-79.5-38.1s14.4,48.2,34.4,63.4c20,15.2,33.3,28.8,73.9,48.3
					C981.1,600.3,960.8,561.4,951.5,553.7z"/>
				<path class="st14" d="M979.4,623.9c-40.6-15.2-55.8-27.1-86.3-83.7c-30.4-56.7-55.8-8.5-66.8,12.7s-18.2,49.5,3.8,74.8
					c16.9-44,49.5-57.1,84.2-39.3s52.4,52.4,36.4,98.1c18.6-1.7,54.1-12.7,69.4,11C1036.9,640,1020,639.2,979.4,623.9z"/>
				<path class="st15" d="M897.8,548.8c-42.6,21.6-54,52.1-55,55.2c18-24.4,44.2-29.6,71.5-15.6c6.3,3.2,12,7,17.1,11.3
					c0.5-0.4,1-0.8,1.5-1.2c0.1-0.1,0.2-0.2,0.3-0.3C921.5,587.6,911,572.6,897.8,548.8z"/>
				<path class="st12" d="M940.5,742.3c-44.8-5.9-100.6-25.4-129.4-4.4s-59.2,91.5-60.9,90.7c-1.7-0.8-16.9-13.5-16.9-13.5
					s-8.5,39.7-51.6,46.5c0,0,9.2,18.2,28.8,46.5c22.8,33,44,22.8,66.8,17.8s28.8-18.6,49.1-38.9c3,64.7,14.8,67.2,14.8,67.2
					s27.1,104.9,191.1,9.3c0,0,3-183.9,2.9-184.8C1035.2,778.7,985.3,748.3,940.5,742.3z"/>
				<polygon class="st16" points="789.9,735.6 810.2,749.1 848.3,672.1 822.9,662 				"/>
				<g>
					<path class="st4" d="M659.4,618.1l-23.9,17.5c0.8,1.1,82.6,112.4,129.1,174.6c20.4,27.3,28.1,61.9,21.2,94.8
						c-5.8,27.5-20.9,49.9-41.6,61.6l14.6,25.8c28-15.8,48.4-45.4,56-81.2c8.7-41.2-0.9-84.5-26.4-118.6
						C741.9,730.4,660.2,619.3,659.4,618.1z"/>
				</g>
				<path class="st13" d="M1020,711.1c-14.1,2.7-73.6-2.5-85.4-7.6s-66-27.1-66-27.1c-22.8,7.6-41.4,42.3-38.9,93.9
					c37.2,14.4,73.6,24.5,86.3,27.1c12.7,2.5,44.8,22.8,100.6,0.8C1072.4,776.2,1050.4,705.1,1020,711.1z"/>
				<path class="st12" d="M726.9,644.5l-89.6,67.9c-2.8,2.1-3.3,6.1-1.2,8.9s6.1,3.3,8.9,1.2l89.6-67.9c2.8-2.1,3.3-6.1,1.2-8.9
					S729.7,642.4,726.9,644.5z"/>
				<path class="st12" d="M1036,759.3c-9.3,17.8-41.4,31.3-90.5,28.8c16.1-13.5,22.8-40.6,17.8-35.5c-5.1,5.1-28.8,25.4-75.3,17.8
					c-20-3.3-39.9-11.3-58.2-21.2c-0.5,6.7-0.5,13.8-0.2,21.2c37.2,14.4,73.6,24.5,86.3,27.1c12.7,2.5,44.8,22.8,100.6,0.8
					C1045.3,780.4,1037.7,755.9,1036,759.3z"/>
				<path class="st17" d="M839,837.1c0.4-13.1-13.1,21.6-13.1,21.6l-4.2,21.1c1.6,19.4-1.2,50.3,10.9,71.6
					c8.1-3.9,11.2-10.1,13.9-15.9c-1.5-4.4-2.8-9.9-3.7-16.8C839.4,891.6,838.6,850.2,839,837.1z"/>
				<path class="st8" d="M805.2,755.9l24.5,14.4c0,0,10.1-69.4,38.9-93.9c0,0-11-5.1-22.8-9.3C802.6,695.8,805.2,755.9,805.2,755.9z
					"/>
				<path class="st9" d="M442.8,248c14,36,71.9,95.6-120.1-111.6s-87.1,40.6-20.3,138.7s81.2,117.6,44,91.3
					c-37.2-26.2-11.8,5.9,19.5,33c31.3,27.1,239.3,213.1,239.3,213.1c27.9-8.5,34.7-29.6,34.7-29.6s-22-71.9-113.3-264.7
					S426.7,206.6,442.8,248z"/>
				<path class="st18" d="M937,601.6c-2.5-2.1-5-4.4-7.4-6.8c-28.1-24.2-57.9-30.8-81.2-10.6c-25.7,22.3-18.2,43.6-18.2,43.6
					c16.9-44,49.5-57.1,84.2-39.3s52.4,52.4,36.4,98.1c18.6-1.7,54.1-12.7,69.4,11c3.6-12.2,5.6-21.8,6.3-29.6v0
					C1025.8,631.6,982.8,646.8,937,601.6z"/>
				<path class="st13" d="M781.5,643.4c0,0,5.1-11-6.8-19.5c-11.8-8.5-24.5-19.5-34.7-16.9c-10.1,2.5-12.7,11-23.7,27.9
					c-9.3,4.2-19.5,7.6-11,28.8s15.2,33,29.6,33.8c44.8,38.9,55,43.1,62.6,48.2c0-55.8,38.1-81.2,38.1-81.2s-21.1-10.1-32.1-15.2
					S781.5,643.4,781.5,643.4z"/>
				<path class="st12" d="M768.8,645.9c5.9-8.5-18.6-21.1-26.2-26.2c-7.3-4.8-18.3,3.4-25.2,13.7c-0.3,0.5-0.7,1-1,1.5
					c-2.2,3.5-3.4,3.7-3.8,1.7c-7.9,3.8-14.6,8.7-7.2,27c8.5,21.1,15.2,33,29.6,33.8c44.8,38.9,55,43.1,62.6,48.2
					c0-5.7,0.4-11.1,1.1-16.2c-11.4-8.1-21.5-16.3-29.9-23.6C741.7,682.3,754.4,651.8,768.8,645.9z"/>
				<path class="st17" d="M805.2,755.9l24.5,14.4c0,0,1.2-7.9,3.8-19.3c-9.4-4.9-18.4-10.3-26.8-15.9
					C804.8,747.3,805.2,755.9,805.2,755.9z"/>
				<path class="st17" d="M748.9,827.7c-4.1-3.1-15.6-12.6-15.6-12.6s-8.5,39.7-51.6,46.5c0,0,5.8,11.5,17.9,30.3
					c64.4-21.3,50.6-61.6,50.6-61.6L748.9,827.7z"/>
				<path class="st8" d="M681.7,861.6c0,0,0.4,0.9,1.3,2.6c2.1,0,4.6-0.4,7.5-1c33.6-7.4,46.3-30.5,50.6-41.6
					c-4-3.3-7.8-6.5-7.8-6.5S724.8,854.8,681.7,861.6z"/>
				<path class="st15" d="M780.6,757c-4.1-5.1-11.7-5.9-16.9-1.8L731,781.5c-5.1,4.1-5.9,11.7-1.8,16.9l12.5,15.5
					c4.1,5.1,11.7,5.9,16.9,1.8l32.7-26.3c5.1-4.1,5.9-11.7,1.8-16.9L780.6,757z"/>
				<g>
					<path class="st19" d="M754.8,803.7c-6.8-6.8-9.3-11.8-13.5-17.8c-4.5-6.3-2-10.3-1.1-11.7l-10.6,8.5c-4.3,3.5-5,9.9-1.5,14.3
						l14.9,18.4c3.5,4.3,9.9,5,14.3,1.5l8.5-6.9C763.1,810.4,758.5,807.3,754.8,803.7z"/>
					<polygon class="st20" points="741.1,773.4 741.1,773.4 741.1,773.4 					"/>
				</g>
				<path class="st12" d="M510.8,1235.4c-29.6-5.1-59.2-20.3-77.8-42.3c-6.8-3.4-3.4,7.6-56.7,41.4c-24.4,15.5-52.4,33-57.5,32.1
					s-8.5,12.7-4.2,15.2c4.2,2.5,21.1,5.9,44,8.5c22.8,2.5,83.7-2.5,89.6-6.8c5.9-4.2,14.4-9.3,14.4-9.3s1.7,8.5,8.5,9.3
					s45.7,0,45.7,0S522.7,1237.4,510.8,1235.4z"/>
				<path class="st13" d="M699,748.7c-5.1-4.2-11-6.8-11-6.8s0.2-25.4-7.5-35.5s-19.6-15.2-27.2-18.6s-10.1,0-10.1,0
					s-15-8.1-21.1-1.7c-18.6,19.5-32.1,49.1-27.1,60c3.6,7.8,17.3,18.2,23.3,24.1c5.9,5.9,15.2,8.5,15.2,8.5s2.5,16.1,11,29.6
					c8.5,13.5,33.4,57.9,33.4,57.9s50.1-7.4,60.1-57C716.7,773.5,704.1,752.9,699,748.7z"/>
				<path class="st12" d="M727.4,810.8c-0.8,2.5-25.4,30.4-33.8,32.1s-9.3-3.4-23.7-24.5s-25.4-38.1-20.3-43.1
					c5.1-5.1,15.2-11.8,23.7-22.8c8.5-11-8.5-27.1-15.2-33.8s-18.6-20.3-21.1-23.7s-1.7,4.2,2.5,10.1c4.2,5.9,10.1,10.1,7.6,16.1
					c-2.5,5.9-19.5,28.8-22.8,34.7c-3.4,5.9-13.5,6.8-21.4,0.2c5.3,5.3,11.8,10.6,15.4,14.2c5.9,5.9,15.2,8.5,15.2,8.5
					s2.5,16.1,11,29.6c8.5,13.5,33.4,57.9,33.4,57.9s26.7-3.9,45.1-25.4C734.6,820.5,728.1,808.6,727.4,810.8z"/>
				<path class="st21" d="M1020,711.1c-14.1,2.7-73.6-2.5-85.4-7.6s-66-27.1-66-27.1c-10.2,3.4-19.6,12.2-26.6,25.5
					c2.2,1.2,4.5,2.4,6.7,3.6c20.3,11,68.5,25.4,77.8,29.6c9.3,4.2,29.6-2.5,54.1-6.8c24.5-4.2,33,0,27.1,8.5
					c-5.7,8.1,39.6-17.3,43.1,8.7C1048.9,725.2,1035.6,708,1020,711.1z"/>
				<path class="st21" d="M781.5,643.4c0,0,0-0.1,0.1-0.3c-0.2-0.1-0.4-0.1-0.5-0.2c-12.7-4.2-23.4,13.5-23.4,13.5
					s24.3,13,56.9,30.7c10.1-15.3,21-22.6,21-22.6s-21.1-10.1-32.1-15.2S781.5,643.4,781.5,643.4z"/>
				<path class="st22" d="M822.3,691.3c8.3,4.5,17.1,9.3,26.1,14.1c5.4-11.5,12-22.1,20.1-29c0,0-11-5.1-22.8-9.3
					C835.6,673.8,828,682.3,822.3,691.3z"/>
				<path class="st18" d="M651.7,593.1c0.8-10.1-6.8-20.3-8.5-18.6c-20.3,17.8-50.7,35.5-50.7,35.5s5.9,11.8,17.8,12.7
					c0,0,12.7,18.6,22.8,29.6c10.1-1.7,39.7-26.2,38.1-29.6S659.3,603.2,651.7,593.1z"/>
				
					<ellipse transform="matrix(0.3827 -0.9239 0.9239 0.3827 -207.8475 1056.0638)" class="st12" cx="686.3" cy="683.6" rx="10.1" ry="10.1"/>
				<path class="st8" d="M864.8,599.8c-5.8,10.2,8.7,17.9,17.8,4.2C891,591.4,872.4,586.3,864.8,599.8z"/>
				<path class="st22" d="M874.1,601.5c-5.1,6.8,1.9,11.9,6.4,5.1C885.1,599.8,880.6,592.9,874.1,601.5z"/>
				<path class="st15" d="M651.7,593.1c0.8-10.1-6.8-20.3-8.5-18.6c-4.6,4-9.7,8-14.8,11.8c0,0,6.4-1.7,8.9,0
					c2.5,1.7,2.5,12.7,1.7,16.1c-0.8,3.4-6.8,10.1-6.8,10.1s10.1-4.2,15.2-6.8c11,13.5,15.5,21.3,16.6,25.9c4.6-4.3,7.6-7.8,7-9
					C669.4,619.3,659.3,603.2,651.7,593.1z"/>
				<path class="st13" d="M1031.8,963.1c0,0-88.8-19.5-170.8-10.1c6.8,11.8-9.3,20.3-20.7,0.4c0,0-155.6-31.3-182.7-31.3
					c-27.1,0-177.6,174.2-183.5,182.7s-8.5,22.8-8.5,22.8s-9.3,9.3-16.1,16.9s-16.9,48.2-16.9,48.2s16.1,28.8,32.1,42.3
					c16.1,13.5,48.8,1.9,48.8,1.9s15.9-29.4,18.4-32.8c2.5-3.4,22-11,31.3-19.5c9.3-8.5,70.2-77,77.8-85.4c7.6-8.5,11-22,11-22
					s14.4,1.7,30.4-5.1c53.3,22.8,122.6,51.6,122.6,51.6s-19.5,55-24.5,68.5s0.8,28.8,0.8,28.8s-3.4,15.2,21.1,45.7
					c24.5,30.4,94.7,32.1,131.1,5.1c36.4-27.1,72.7-79.5,86.3-111.6s11.8-143.8,11.8-151.4C1031.8,1001.1,1031.8,963.1,1031.8,963.1
					z"/>
				<path class="st12" d="M709.6,957.2c5.9,7.6,49.1,71,57.5,82.9s-11.8-5.1-40.6-37.2c-28.8-32.1-49.1-48.2-54.1-47.4
					c-5.1,0.8,8.5,11.8,23.7,35.5c15.2,23.7,9.3,27.1,6.8,23.7c-2.5-3.4-17.8-23.7-23.7-27.9c-5.9-4.2,3.4,59.2-47.4,55.8
					c-4.2,2.5,12.7,9.3-30.4,55c-43.1,45.7-46.5,37.2-60.9,37.2s-33.8-6.8-38.9-9.3s6.8,15.2,22,24.5c15.2,9.3,15.2,9.3,15.2,9.3
					s-16.1,21.1-26.2,24.5c-10.1,3.4-24.5,36-44.4,53.5c16.9,9.7,45.4-0.4,45.4-0.4s15.9-29.4,18.4-32.8c2.5-3.4,22-11,31.3-19.5
					c9.3-8.5,70.2-77,77.8-85.4c7.6-8.5,11-22,11-22s14.4,1.7,30.4-5.1c53.3,22.8,122.6,51.6,122.6,51.6s14.4-36.4,21.1-71
					c0,0-47.4-47.4-61.7-66.8C750.2,966.5,703.7,949.5,709.6,957.2z"/>
				<g>
					<path class="st8" d="M465.6,1127.6c0,0-2.7,2.7-6.3,6.4c17.4,15.1,51.3,42.8,86.1,62.1c6.3-3.3,13.3-7.3,17.9-11.5
						c1.4-1.3,4.1-4,7.5-7.7c-40-19.5-83.2-56.2-98.4-69.7C467.7,1115.8,465.6,1127.6,465.6,1127.6z"/>
					<path class="st8" d="M481.2,1096c13.8,12.4,56,48.8,98.5,71.4c6-6.5,13-14.2,20-22c-41.7-20.5-86.6-59.3-99.8-71.1
						C492.2,1083.1,485.8,1090.6,481.2,1096z"/>
				</g>
				<g>
					<g>
						<path class="st17" d="M540.4,1134.8c-4.2,0-8.9-0.6-13.5-1.5c16,11.9,34.4,24.3,52.8,34.1c6-6.5,13-14.2,20-22
							c-10.2-5-20.5-11.1-30.5-17.6C554.7,1138.5,550,1134.8,540.4,1134.8z"/>
						<path class="st17" d="M523.5,1150c15.2,9.3,15.2,9.3,15.2,9.3s-10.3,13.6-19.6,20.7c8.5,5.7,17.4,11.2,26.3,16.1
							c6.3-3.3,13.3-7.3,17.9-11.5c1.4-1.3,4.1-4,7.5-7.7c-22-10.7-44.9-26.6-63.6-41C511.4,1140.7,517.1,1146.1,523.5,1150z"/>
					</g>
				</g>
				<path class="st12" d="M1032.2,963.1c0,0-15.8-3.5-40.1-6.7c0,0,5.9,10.6,5.9,25.8c0,15.2-10.1,116.7-10.1,116.7
					s-5.1-10.1-15.2-24.5c-10.1-14.4,10.1,38.9-7.6,77.8c-17.8,38.9-55.8,99-105.7,101.5c-49.9,2.5-75.3-33-75.3-33l-0.6,12.3
					c2.3,7.6,7.6,18.9,19.6,33.8c24.5,30.4,94.7,32.1,131.1,5.1c36.4-27.1,72.7-79.5,86.3-111.6s11.8-143.8,11.8-151.4
					C1032.2,1001.1,1032.2,963.1,1032.2,963.1z"/>
				<path class="st12" d="M809.8,1147.9c0,0,18.6,45.7,29.6,56.7c11,11-11-41.4-20.3-83.7C817.4,1113,809.8,1147.9,809.8,1147.9z"/>
				<g>
					<path class="st8" d="M852.7,1084l0.6,29.6c0.3,0,31.6-0.5,68.4,6.8c31.2,6.2,72.2,19.3,95.1,46.9c1.2-2.5,2.3-4.9,3.2-7.2
						c2.6-6.1,4.6-14.9,6.1-25.4C966.3,1082.5,857.8,1083.9,852.7,1084z"/>
					<path class="st8" d="M853.7,1041.7l0.2,29.6c0.4,0,36.5-0.1,78.1,7.7c43.3,8.1,76.1,21.6,96.2,39.5c1.1-11.2,1.9-23.2,2.5-35.1
						c-23.4-15-54.5-26.2-93.2-33.5C893.1,1041.6,855.3,1041.7,853.7,1041.7z"/>
				</g>
				<path class="st12" d="M1024.5,1144.1c-10-18.2-67.5,48.6-67.5,48.6l-49.1,78.7l68.5-17.8c0,0,4.2,11,11,14.4
					c6.8,3.4,33.8,9.3,48.2-14.4c14.4-23.7,15.2-37.2,2.5-60.9C1025.5,1169,1034.5,1162.3,1024.5,1144.1z"/>
				<g>
					<path class="st17" d="M970,1134.9c17.8,7.6,34.7,18,46.7,32.4c1.2-2.5,2.3-4.9,3.2-7.2c2.6-6.1,4.6-14.9,6.1-25.4
						c-15.6-13.6-34.6-23.6-54.1-30.9C972.5,1113.4,972.2,1124.2,970,1134.9z"/>
					<path class="st17" d="M987.8,1094.7c16.6,6.7,30.1,14.7,40.3,23.8c1.1-11.2,1.9-23.2,2.5-35.1c-11.4-7.3-24.7-13.8-39.8-19.3
						C989.5,1077.6,988.4,1088.9,987.8,1094.7z"/>
					<path class="st17" d="M970.8,1088.6c4.8,1.5,9.3,3.1,13.7,4.8c-2.5-4.4-6.6-11.1-12.3-19.1
						C967.6,1067.8,969.2,1075.1,970.8,1088.6z"/>
				</g>
				<path class="st8" d="M820,830.7c0,3.4-5.1,1.7-5.1,7.6s1.7,43.1-5.1,47.4c25.4-5.9,25.4-0.8,26.2-22.8c0.8-22,3.9-31,5.1-28.8
					c1.6,3.2,12.2-25.4,16.2-53.8c-7.8-2.6-15.8-5.5-24-8.6C831.7,795.2,820,827.5,820,830.7z"/>
				<path class="st8" d="M949.4,885.7c-1.4-12.7-2.2-58-3-79.4c-14.6-2.8-24.6-7.8-30.4-9c-0.1,0-0.2,0-0.3-0.1
					c1,18.8,3.3,84.1,4.9,96c1.7,12.7,5.9,2.5,8.5,17.8c2.5,15.2,4.2,51.6,4.2,55c23.7,0,30.4-18.6,30.4-18.6s-4.2-33.8-5.9-45.7
					C956.1,889.9,951,900.9,949.4,885.7z"/>
				<g>
					<path class="st4" d="M787.4,1243.6c-59.1,18.1-117.6,26.9-178,26.9c-48.1,0-90.7-7.3-123-21.2c-25.7-11-44.7-26-53.7-42.3
						c-6.3-11.4-6.9-22.1-1.8-30.1c2-3.2,4.9-5.9,8.4-8.1c3.2-10.3,7.1-20.8,10.2-24.3c3.2-3.6,7-7.6,10.1-10.9
						c-23.9,2-42.8,11.7-53,27.8c-10.8,17.1-10.5,38.7,0.8,59.4c12.2,22.2,35.6,41.2,67.6,54.9c36.4,15.6,81.6,23.5,134.3,23.5
						c73,0,137-12.3,194.7-30.8c-0.5-0.6-1-1.2-1.5-1.8C795.3,1257.7,790.5,1250,787.4,1243.6z"/>
				</g>
			</g>
		</g>
	</g>
</g>
</svg>
