<?xml version="1.0"?>
<svg xmlns="http://www.w3.org/2000/svg" xmlns:xlink="http://www.w3.org/1999/xlink" xmlns:svgjs="http://svgjs.com/svgjs" version="1.1" width="512" height="512" x="0" y="0" viewBox="0 0 489.708 489.708" style="enable-background:new 0 0 512 512" xml:space="preserve" class=""><g>
<path xmlns="http://www.w3.org/2000/svg" d="M95.246,418.534h294.476c2.762,0,5,2.239,5,5s-2.238,5-5,5H95.246c-2.762,0-5-2.239-5-5S92.484,418.534,95.246,418.534z   M389.721,437.03H95.246c-2.762,0-5,2.239-5,5s2.238,5,5,5h294.476c2.762,0,5-2.239,5-5S392.483,437.03,389.721,437.03z M443.354,5  v479.708c0,2.761-2.238,5-5,5H100.969c-25.194,0-54.615-15.139-54.615-57.804V45.153C46.354,20.256,66.61,0,91.507,0h346.847  C441.116,0,443.354,2.239,443.354,5z M433.354,10H105.969v300.406l42.703-42.703c0.938-0.938,2.209-1.464,3.535-1.464  s2.598,0.527,3.535,1.464l1.97,1.97l44.606-44.606c-32.587-42.579-28.619-103.074,9.42-141.113  c41.876-41.877,110.015-41.875,151.889,0c20.286,20.286,31.458,47.257,31.458,75.945c0,28.688-11.172,55.659-31.458,75.945  c-20.907,20.908-48.431,31.456-75.992,31.458c-22.94,0.002-45.892-7.328-65.113-22.045l-44.613,44.613l1.969,1.969  c1.953,1.953,1.953,5.119,0,7.071l-69.683,69.684c-0.938,0.938-2.209,1.464-3.535,1.464c-0.234,0-0.462-0.036-0.691-0.068v6.557  h327.385V10z M89.596,340.922l17.064,17.065l62.611-62.612l-17.064-17.064l-6.747,6.747l10.533,10.533  c1.953,1.953,1.953,5.119,0,7.071c-0.976,0.976-2.256,1.464-3.535,1.464s-2.56-0.488-3.535-1.464l-10.533-10.533L89.596,340.922z   M164.783,276.744l6.055,6.055l44.226-44.226c-0.902-1.783-0.688-4.006,0.723-5.586c1.842-2.059,5.001-2.237,7.061-0.396  c38.464,34.372,97.194,32.695,133.709-3.818c18.396-18.396,28.528-42.856,28.528-68.874c0-26.017-10.132-50.477-28.528-68.874  c-37.976-37.976-99.769-37.978-137.748,0c-34.698,34.7-38.155,90.007-8.041,128.65c0.526,0.675,0.828,1.444,0.962,2.232  c0.152,0.12,0.31,0.228,0.45,0.368c1.953,1.953,1.953,5.119,0,7.071L164.783,276.744z M433.354,479.708v-72.766h-15.79v54.922  c0,2.761-2.238,5-5,5H102.733c-19.277,0-34.961-15.684-34.961-34.961c0-19.278,15.684-34.961,34.961-34.961h288.413h21.418h20.79  v-10.396H94.287c-5.577,0-12.193,2.511-18.629,7.071c-0.878,0.622-1.887,0.921-2.887,0.921c-1.566,0-3.109-0.734-4.084-2.11  c-1.596-2.253-1.063-5.374,1.189-6.97c8.111-5.747,16.78-8.912,24.41-8.912h1.683v-15.109l-16.979-16.98  c-1.953-1.953-1.953-5.119,0-7.071l16.979-16.979V10h-4.462c-19.384,0-35.153,15.77-35.153,35.153v386.75  c0,45.5,37.165,47.804,44.615,47.804H433.354z M102.733,406.942c-13.764,0-24.961,11.198-24.961,24.961s11.197,24.961,24.961,24.961  h304.831v-49.922h-16.418H102.733z M227.862,219.721c-32.986-32.986-32.986-86.658,0-119.644  c12.697-12.697,28.724-20.841,46.108-23.659c0.853-0.676,1.917-1.096,3.089-1.096c0.706,0,1.376,0.15,1.986,0.414  c2.852-0.288,5.733-0.438,8.638-0.438c22.598,0,43.843,8.8,59.821,24.779c32.986,32.986,32.986,86.658,0,119.644  C331.526,235.7,310.281,244.5,287.683,244.5S243.84,235.7,227.862,219.721z M340.434,107.148  c-6.3-6.299-13.532-11.323-21.379-14.964v135.428c7.847-3.641,15.079-8.665,21.379-14.964  C369.52,183.563,369.52,136.235,340.434,107.148z M234.932,212.649c10.331,10.331,23.164,17.242,37.127,20.203v-93.997  c0-2.761,2.238-5,5-5s5,2.239,5,5v95.414c1.864,0.138,3.736,0.23,5.624,0.23c7.345,0,14.524-1.062,21.372-3.099V88.397  c-6.848-2.037-14.027-3.099-21.372-3.099c-1.888,0-3.76,0.092-5.624,0.23v18.904c0,2.761-2.238,5-5,5s-5-2.239-5-5V86.945  c-13.963,2.961-26.796,9.872-37.127,20.203C205.846,136.235,205.846,183.563,234.932,212.649z" fill="#f31111" data-original="#000000" style="" class=""/>
<g xmlns="http://www.w3.org/2000/svg">
</g>
<g xmlns="http://www.w3.org/2000/svg">
</g>
<g xmlns="http://www.w3.org/2000/svg">
</g>
<g xmlns="http://www.w3.org/2000/svg">
</g>
<g xmlns="http://www.w3.org/2000/svg">
</g>
<g xmlns="http://www.w3.org/2000/svg">
</g>
<g xmlns="http://www.w3.org/2000/svg">
</g>
<g xmlns="http://www.w3.org/2000/svg">
</g>
<g xmlns="http://www.w3.org/2000/svg">
</g>
<g xmlns="http://www.w3.org/2000/svg">
</g>
<g xmlns="http://www.w3.org/2000/svg">
</g>
<g xmlns="http://www.w3.org/2000/svg">
</g>
<g xmlns="http://www.w3.org/2000/svg">
</g>
<g xmlns="http://www.w3.org/2000/svg">
</g>
<g xmlns="http://www.w3.org/2000/svg">
</g>
</g></svg>
