<?xml version="1.0" standalone="no"?>
<!DOCTYPE svg PUBLIC "-//W3C//DTD SVG 20010904//EN"
 "http://www.w3.org/TR/2001/REC-SVG-20010904/DTD/svg10.dtd">
<svg version="1.0" xmlns="http://www.w3.org/2000/svg"
 width="300.000000pt" height="300.000000pt" viewBox="0 0 300.000000 300.000000"
 preserveAspectRatio="xMidYMid meet">

<g transform="translate(0.000000,300.000000) scale(0.100000,-0.100000)"
fill="#000000" stroke="none">
<path d="M1380 2924 c-422 -50 -762 -236 -1004 -549 -205 -264 -300 -542 -300
-875 0 -333 95 -611 300 -875 216 -279 518 -462 879 -532 123 -23 367 -23 490
0 361 70 663 253 879 532 205 264 300 542 300 875 0 333 -95 611 -300 875
-261 338 -654 537 -1084 550 -69 2 -141 1 -160 -1z m252 -104 c24 -30 23 -46
-6 -75 -14 -14 -20 -27 -15 -30 5 -4 18 -24 29 -46 l20 -39 -39 0 c-33 0 -40
4 -51 29 -6 16 -20 37 -31 47 -18 17 -19 16 -19 -29 0 -47 0 -47 -35 -47 l-35
0 0 103 c0 57 3 107 8 111 4 5 40 6 81 3 62 -3 78 -8 93 -27z m-268 -1 c48
-38 30 -102 -35 -119 -40 -11 -41 -11 -34 -51 6 -37 5 -39 -19 -39 -14 0 -29
0 -33 -1 -7 0 -42 156 -43 192 0 12 16 19 63 26 34 6 65 11 68 12 4 0 18 -8
33 -20z m498 -26 c38 -19 51 -48 45 -102 -10 -86 -86 -124 -167 -83 -61 30
-71 123 -20 177 34 36 82 39 142 8z m243 -89 c22 -10 41 -19 43 -20 2 -1 -1
-11 -7 -23 -11 -20 -12 -20 -55 -1 -40 17 -45 17 -50 3 -7 -18 -10 -16 32 -33
21 -8 32 -18 30 -29 -4 -17 -25 -19 -69 -7 -22 6 -27 4 -33 -16 -11 -43 -20
-50 -50 -38 -34 12 -32 22 19 133 l36 77 32 -14 c18 -7 50 -22 72 -32z m-1097
12 c65 -35 82 -128 34 -176 -36 -35 -96 -49 -130 -29 -64 36 -88 124 -47 170
39 43 101 59 143 35z m1232 -94 l22 -18 -57 -87 -56 -87 -30 17 c-26 15 -27
19 -15 38 7 11 32 50 55 88 24 37 46 67 51 67 4 0 18 -8 30 -18z m-1464 -30
c19 -12 33 -48 28 -68 -4 -16 3 -22 41 -33 25 -7 47 -17 50 -21 2 -4 -9 -16
-25 -28 l-29 -22 -45 20 c-52 22 -70 11 -37 -24 12 -12 21 -27 21 -33 0 -14
-37 -46 -47 -40 -5 3 -36 41 -70 85 l-61 79 60 47 c58 44 90 55 114 38z m984
-32 c397 -104 696 -405 801 -805 20 -77 24 -114 24 -255 0 -141 -4 -178 -24
-255 -105 -402 -404 -701 -806 -806 -77 -20 -114 -24 -255 -24 -141 0 -178 4
-255 24 -402 105 -701 404 -806 806 -20 77 -24 114 -24 255 0 141 4 178 24
255 112 427 444 739 874 821 108 20 338 12 447 -16z m636 -54 c52 -52 45 -127
-8 -79 -10 9 -18 24 -18 34 0 20 -15 33 -30 24 -6 -3 1 -23 16 -45 33 -49 34
-88 4 -112 -34 -27 -66 -22 -110 18 -31 29 -40 43 -40 70 0 18 5 36 11 39 16
10 47 -23 51 -54 2 -18 10 -27 26 -29 29 -4 28 10 -3 56 -29 43 -31 68 -8 94
26 29 70 23 109 -16z m-1766 -131 c73 -73 73 -75 55 -95 -10 -11 -23 -20 -29
-20 -6 0 -43 32 -83 72 l-73 72 22 23 c12 13 24 23 27 23 4 0 40 -34 81 -75z
m1915 -27 c37 -29 59 -82 45 -108 -6 -11 -14 -20 -19 -20 -16 0 -36 33 -36 59
0 17 -6 27 -19 29 -15 3 -17 0 -11 -14 38 -90 36 -118 -7 -143 -37 -21 -82 0
-114 54 -19 34 -23 48 -15 68 5 14 14 28 19 31 16 10 41 -28 39 -58 -1 -17 5
-32 15 -39 28 -18 33 0 15 51 -22 60 -21 68 3 92 26 26 51 25 85 -2z m-2055
-26 c0 -4 -14 -25 -30 -46 -22 -29 -27 -43 -19 -50 11 -11 23 0 59 52 13 19
17 20 34 7 17 -13 17 -15 -9 -49 -25 -33 -28 -66 -7 -66 5 0 22 18 37 40 29
42 43 48 62 29 9 -9 -1 -30 -39 -85 l-51 -73 -66 46 c-36 26 -76 54 -88 63
l-22 17 51 71 c44 61 53 70 69 61 11 -5 19 -13 19 -17z m2190 -174 c9 -14 -3
-25 -75 -68 -47 -27 -89 -50 -94 -50 -5 0 -16 11 -25 25 -18 28 -28 19 99 93
71 42 71 42 95 0z m-2308 -50 c13 -13 35 -22 57 -22 27 -1 39 -7 49 -26 13
-23 12 -32 -17 -102 l-32 -77 -77 35 c-42 20 -87 40 -99 45 l-22 8 25 58 c23
55 63 103 85 103 5 0 19 -10 31 -22z m2370 -98 c32 -34 45 -91 29 -126 -25
-55 -121 -82 -170 -48 -26 19 -51 71 -51 108 0 33 44 84 83 95 45 14 78 5 109
-29z m-2409 -151 c58 -10 77 -17 77 -28 0 -36 -14 -42 -70 -31 -79 15 -81 13
-12 -20 53 -25 63 -33 60 -52 -3 -20 -12 -24 -73 -33 l-70 -11 53 -7 c74 -11
80 -14 74 -43 -2 -13 -7 -24 -11 -24 -3 0 -50 7 -105 17 l-98 17 5 39 c3 21 7
41 10 43 3 3 31 8 63 11 l57 6 -56 29 c-32 16 -55 33 -53 41 3 6 7 25 11 41 5
24 10 28 33 23 15 -3 62 -11 105 -18z m2497 -116 c0 -13 -18 -36 -50 -63 -28
-24 -49 -44 -48 -45 2 -1 27 1 56 4 34 5 52 4 52 -3 0 -6 3 -20 6 -32 5 -20 0
-22 -83 -33 -131 -16 -133 -16 -133 18 0 23 12 41 47 74 l47 45 -54 -1 c-53
-2 -55 -1 -58 25 -3 24 0 27 40 33 173 24 178 24 178 -22z m-2489 -202 c42
-43 42 -119 0 -162 -23 -22 -39 -29 -70 -29 -77 0 -121 41 -121 112 1 68 44
107 118 108 35 0 49 -6 73 -29z m2501 -133 c-2 -18 -7 -36 -10 -39 -8 -7 -184
-59 -201 -59 -6 0 -11 14 -11 31 0 22 5 32 19 36 27 7 34 71 9 84 -18 10 -23
34 -12 62 4 12 25 6 107 -34 101 -48 102 -49 99 -81z m-2468 -117 c14 -15 61
-152 53 -156 -8 -6 -199 -56 -202 -53 -8 9 -35 115 -35 140 0 37 39 64 69 48
16 -8 21 -8 21 3 0 38 65 51 94 18z m2351 -37 c50 -14 91 -27 93 -28 1 -2 -3
-17 -9 -33 l-10 -31 -67 19 c-37 10 -72 19 -77 19 -6 0 -16 -20 -23 -45 -7
-25 -18 -45 -24 -45 -24 0 -40 17 -35 36 3 11 13 45 22 77 9 31 22 57 29 57 6
0 52 -12 101 -26z m-2110 -546 c9 -29 15 -34 50 -38 l40 -5 -33 -20 c-19 -12
-30 -25 -27 -33 3 -8 8 -25 12 -39 6 -28 -3 -26 -40 5 -16 14 -20 13 -47 -6
-16 -12 -31 -22 -34 -22 -2 0 1 16 7 36 10 34 9 37 -18 58 l-30 21 40 5 c34 4
40 9 47 38 5 17 12 32 16 32 4 0 12 -15 17 -32z m1803 0 c7 -29 13 -34 47 -38
l40 -5 -30 -21 c-27 -21 -28 -24 -18 -58 6 -20 9 -36 7 -36 -3 0 -18 10 -34
22 -27 19 -31 20 -47 6 -37 -31 -46 -33 -40 -5 4 14 9 31 12 39 3 8 -8 21 -27
33 l-33 20 40 5 c35 4 41 9 50 38 5 17 13 32 17 32 4 0 11 -15 16 -32z m-1219
-293 c16 -8 34 -28 39 -45 11 -30 11 -30 -24 -30 -23 0 -34 5 -34 14 0 24 -39
30 -61 10 -27 -25 -26 -90 2 -99 13 -4 27 -1 39 10 15 14 21 14 39 3 63 -39
-40 -90 -114 -56 -65 29 -73 130 -15 188 24 24 87 27 129 5z m671 -52 c13 -38
26 -71 29 -76 4 -4 27 0 51 8 45 16 63 9 57 -24 -2 -12 -115 -61 -142 -61 -12
0 -75 155 -75 184 0 11 32 33 52 35 3 1 16 -29 28 -66z m-136 15 c24 -110 35
-181 30 -189 -3 -5 -18 -9 -33 -9 -27 0 -29 3 -45 83 -25 127 -26 124 36 136
4 0 10 -9 12 -21z m-376 3 c11 -7 11 -26 1 -110 -12 -101 -12 -101 -40 -101
-15 0 -30 4 -33 9 -4 5 -1 55 5 110 11 93 14 101 33 101 12 0 27 -4 34 -9z
m272 -9 c0 -4 -15 -53 -33 -107 l-34 -100 -37 0 -38 0 -43 103 -43 102 37 0
37 0 24 -72 23 -73 19 65 c11 36 21 71 23 78 5 13 65 17 65 4z"/>
<path d="M1520 2780 c0 -17 5 -21 28 -18 16 2 27 9 27 18 0 9 -11 16 -27 18
-23 3 -28 -1 -28 -18z"/>
<path d="M1277 2760 c7 -25 36 -23 41 3 3 12 -3 17 -21 17 -20 0 -24 -4 -20
-20z"/>
<path d="M1771 2747 c-21 -26 -24 -73 -6 -90 9 -10 23 -17 30 -17 37 0 63 101
29 114 -25 9 -41 7 -53 -7z"/>
<path d="M922 2658 c-29 -29 1 -98 42 -98 31 0 49 23 41 52 -16 50 -56 73 -83
46z"/>
<path d="M701 2526 c-12 -14 -5 -46 10 -46 12 0 39 42 33 52 -8 12 -30 10 -43
-6z"/>
<path d="M1327 2520 c-393 -71 -702 -351 -824 -746 -25 -83 -27 -101 -27 -274
0 -173 2 -191 27 -274 112 -362 361 -611 723 -723 83 -25 101 -27 274 -27 173
0 191 2 274 27 369 114 626 377 728 745 18 65 22 104 22 252 0 148 -4 187 -22
252 -102 369 -363 635 -728 744 -76 22 -112 27 -244 30 -85 1 -177 -1 -203 -6z
m268 -126 c17 23 16 25 49 -41 18 -36 31 -51 40 -47 11 4 18 -7 27 -38 l12
-43 12 35 12 35 22 -50 c15 -33 21 -65 19 -95 -3 -44 -4 -45 -40 -48 -34 -3
-37 -1 -48 33 -8 24 -17 35 -26 31 -9 -4 -14 2 -14 15 0 14 -5 19 -14 16 -8
-3 -17 -3 -21 1 -4 4 -12 7 -18 7 -6 0 -15 19 -20 43 -4 23 -11 42 -15 42 -4
0 -17 -15 -27 -32 l-20 -33 -5 40 -6 40 -29 -57 c-22 -43 -32 -55 -41 -47 -17
14 -34 -19 -34 -66 0 -36 -1 -36 -37 -33 -32 3 -39 7 -46 35 -5 18 -7 39 -3
48 5 15 9 14 26 -6 l20 -24 -6 31 c-4 20 2 49 17 85 28 68 25 65 48 45 19 -18
21 -16 57 55 l37 74 29 -35 c28 -34 30 -34 43 -16z m185 -329 c0 -13 -33 -15
-235 -15 -202 0 -235 2 -235 15 0 13 33 15 235 15 202 0 235 -2 235 -15z
m-335 -62 c3 -21 8 -51 10 -66 4 -24 2 -28 -17 -25 -28 4 -57 45 -65 91 -6 37
-6 37 30 37 34 0 36 -2 42 -37z m155 10 c0 -16 -3 -45 -6 -65 -6 -37 -8 -38
-49 -38 -40 0 -43 2 -49 31 -3 17 -6 47 -6 65 l0 34 55 0 c53 0 55 -1 55 -27z
m116 -4 c-9 -47 -45 -99 -67 -99 -17 0 -19 5 -13 43 11 87 11 87 50 87 36 0
36 -1 30 -31z m-352 -18 c7 -46 54 -101 86 -101 21 0 22 3 16 73 -4 47 -3 65
3 52 5 -11 10 -33 10 -50 2 -67 9 -75 62 -75 44 0 51 3 59 26 6 14 10 40 10
57 0 18 5 39 10 47 8 10 9 -7 4 -57 l-7 -73 27 0 c30 0 71 54 82 108 4 17 11
32 17 32 17 0 -2 -63 -31 -105 l-28 -40 -133 -3 c-117 -2 -136 0 -153 15 -26
23 -58 86 -58 113 0 35 17 22 24 -19z m-639 -116 c25 -69 116 -159 176 -175
24 -7 50 -14 57 -16 19 -5 14 -34 -6 -34 -40 0 -121 32 -163 64 -49 37 -93
108 -108 176 -19 83 12 73 44 -15z m1675 45 c0 -38 -43 -134 -78 -172 -43 -48
-115 -86 -178 -95 -44 -6 -46 -5 -35 14 6 12 25 23 44 27 74 14 164 97 197
180 5 14 14 38 20 52 11 28 30 24 30 -6z m-768 -165 l3 -65 49 42 49 42 34
-39 c19 -22 46 -55 60 -73 l27 -34 -50 -41 c-27 -23 -65 -57 -84 -74 l-35 -33
55 -47 c30 -27 68 -60 85 -75 l30 -26 -54 -64 c-30 -34 -58 -67 -62 -72 -5 -5
-29 10 -56 35 l-48 44 -3 -67 -3 -68 -94 0 -94 0 -3 65 -3 65 -47 -40 -46 -40
-63 71 -63 71 50 41 c27 23 66 58 87 77 l37 35 -65 55 c-36 30 -75 63 -87 73
-22 19 -25 14 94 151 4 6 29 -8 58 -33 l50 -42 0 65 0 66 95 0 94 0 3 -65z
m568 -150 c21 -23 22 -27 9 -40 -13 -14 -18 -12 -43 14 -27 28 -28 51 -2 51 7
0 23 -11 36 -25z m15 14 c11 -17 -1 -21 -15 -4 -8 9 -8 15 -2 15 6 0 14 -5 17
-11z m-1375 -24 c-7 -9 -15 -13 -17 -11 -7 7 7 26 19 26 6 0 6 -6 -2 -15z m34
-36 c-21 -22 -30 -26 -41 -17 -11 9 -9 16 13 39 21 22 30 26 41 17 11 -9 9
-16 -13 -39z m1194 -86 c-111 -127 -125 -140 -140 -125 -8 8 17 40 98 125 61
64 113 111 118 106 5 -4 -28 -50 -76 -106z m-1053 -23 c96 -96 108 -112 95
-124 -13 -13 -27 -1 -115 100 -55 63 -101 119 -103 124 -9 27 23 1 123 -100z
m1155 101 c0 -7 -152 -213 -181 -245 -5 -5 -14 -4 -23 3 -13 11 -1 30 87 131
97 113 117 131 117 111z m-1190 -126 c64 -73 100 -121 96 -130 -3 -8 -9 -15
-14 -15 -11 0 -192 236 -192 250 0 6 2 10 4 10 2 0 50 -52 106 -115z m927 -79
c25 -22 26 -26 13 -40 -19 -19 -46 -2 -55 37 -9 34 5 35 42 3z m-740 -53 c-26
-26 -28 -27 -44 -10 -17 18 -17 19 12 42 26 22 31 23 45 10 13 -13 11 -18 -13
-42z m815 -11 c14 -11 15 -18 7 -29 -16 -18 -33 -16 -54 7 -14 16 -15 22 -5
35 13 15 22 13 52 -13z m-83 -5 c12 -14 19 -30 15 -40 -5 -15 -80 -35 -91 -24
-6 7 38 87 47 87 4 0 16 -11 29 -23z m-799 -42 c-22 -24 -24 -24 -43 -8 -18
17 -18 18 10 40 24 20 30 21 42 8 13 -13 12 -18 -9 -40z m100 -5 c18 -23 31
-42 29 -44 -2 -1 -27 0 -56 2 -61 5 -75 23 -42 59 13 12 26 23 30 23 4 0 22
-18 39 -40z m836 -45 c82 -24 124 -83 124 -172 0 -102 -74 -183 -175 -191
-109 -9 -182 68 -193 204 -3 40 -1 64 5 64 6 0 24 3 41 6 27 6 29 4 25 -18 -8
-40 15 -141 37 -163 16 -15 34 -20 75 -20 45 0 59 4 80 26 52 51 50 152 -2
186 -105 69 -543 -79 -633 -213 -19 -28 -24 -50 -25 -96 0 -55 3 -62 32 -88
44 -40 97 -48 142 -24 45 24 61 55 61 122 0 62 -17 108 -54 141 -14 14 -26 28
-26 31 0 4 18 15 40 25 40 18 40 18 65 -5 41 -39 75 -118 75 -174 -1 -83 -54
-177 -120 -211 -99 -50 -247 -3 -286 91 -37 90 4 229 89 298 83 67 248 151
359 180 70 19 202 20 264 1z m-695 -39 c52 -14 111 -32 133 -41 l39 -16 -38
-26 -38 -26 -97 33 c-86 29 -107 32 -172 28 -141 -10 -196 -53 -185 -147 6
-52 28 -75 87 -91 85 -23 124 27 118 151 -4 87 -6 84 65 73 l37 -7 -1 -56 c0
-81 -35 -167 -82 -204 -54 -44 -134 -49 -204 -13 -60 30 -89 63 -104 119 -24
91 36 196 132 230 69 24 200 21 310 -7z m217 -31 c-20 -11 -34 -12 -52 -5 -39
14 -32 20 27 20 51 -1 52 -1 25 -15z m-5 -163 c14 -15 16 -31 11 -81 l-7 -62
-36 3 -36 3 -3 60 c-3 52 0 61 20 77 29 22 31 22 51 0z m22 -162 c4 -6 -15
-10 -49 -10 -31 0 -56 5 -56 10 0 6 22 10 49 10 28 0 53 -4 56 -10z m5 -40 c0
-5 -24 -10 -54 -10 -30 0 -58 5 -61 10 -4 6 17 10 54 10 34 0 61 -4 61 -10z
m-27 -26 c13 -14 -7 -34 -34 -34 -22 0 -29 5 -29 20 0 15 7 20 28 20 16 0 31
-3 35 -6z m-3 -158 c0 -8 -7 -22 -16 -31 -19 -19 -44 -4 -44 26 0 14 7 19 30
19 19 0 30 -5 30 -14z"/>
<path d="M309 2029 c-9 -17 -8 -23 2 -30 21 -13 27 -11 34 11 12 39 -17 55
-36 19z"/>
<path d="M390 2005 c-15 -18 -6 -45 14 -45 7 0 16 10 19 22 10 37 -10 51 -33
23z"/>
<path d="M2640 1957 c-31 -16 -39 -61 -13 -75 29 -15 87 8 91 36 7 46 -29 64
-78 39z"/>
<path d="M209 1466 c-17 -37 3 -58 54 -54 78 6 77 70 -1 76 -37 3 -43 0 -53
-22z"/>
<path d="M2710 1405 c0 -9 9 -15 24 -15 33 0 42 16 13 24 -33 9 -37 8 -37 -9z"/>
<path d="M318 1225 c-10 -10 4 -55 18 -55 18 0 26 17 19 40 -6 19 -25 26 -37
15z"/>
<path d="M242 1178 c2 -12 11 -24 21 -26 14 -3 18 1 15 20 -2 12 -11 24 -21
26 -14 3 -18 -1 -15 -20z"/>
</g>
</svg>
