<svg id="Capa_1" enable-background="new 0 0 512 512" height="512" viewBox="0 0 512 512" width="512" xmlns="http://www.w3.org/2000/svg"><g clip-rule="evenodd" fill-rule="evenodd"><path d="m358.02 389.031v-266.034c15.506-20.239 30.758-41.272 46.915-60.86 7.936-9.61 1.559-10.233-7.54-11.367-2.835-.34-5.613-.879-8.391-1.475-27.101-5.754-44.704-15.023-68.26-28.459-21.656-12.359-38.354-20.75-64.063-20.835-41.499-.143-62.959 22.648-98.193 37.984-14.542 6.265-29.962 11.026-45.695 13.039-16.243 2.069-7.767 8.164-1.645 16.045 14.4 18.538 28.574 37.275 42.861 55.928v266.034c-14.627 19.135-28.943 38.836-44.108 57.517-1.928 2.409-10.913 11.111-5.103 13.322 3.062 1.162 12.218 1.616 16.47 2.466 24.945 4.933 44.703 14.485 66.587 26.902 23.442 13.379 40.139 22.677 68.145 22.762 41.527-.142 62.08-22.564 97.541-37.956 16.044-6.747 28.744-10.403 45.979-12.898 15.223-2.183 9.241-6.831 2.24-15.137-5.84-6.889-10.999-14.259-16.47-21.401-9.1-11.879-18.199-23.728-27.27-35.577z" fill="#ffe17d"/><path d="m358.02 389.031v-266.034c15.506-20.239 30.758-41.272 46.915-60.86 7.936-9.61 1.559-10.233-7.54-11.367-2.835-.34-5.613-.879-8.391-1.475-27.101-5.754-44.704-15.023-68.26-28.459-21.656-12.359-38.354-20.75-64.063-20.835-5.415 0-10.488.368-15.279 1.049 18 2.636 32.089 9.949 49.352 19.786 23.557 13.436 41.16 22.705 68.23 28.459 2.807.596 5.584 1.135 8.391 1.475 9.128 1.134 15.507 1.757 7.568 11.367-16.186 19.588-31.436 40.621-46.941 60.86v266.034c9.1 11.849 18.198 23.698 27.27 35.576 5.499 7.143 10.658 14.513 16.469 21.401 7.03 8.306 12.983 12.954-2.211 15.137-17.263 2.495-29.934 6.151-45.977 12.898-30.984 13.465-50.6 32.259-82.744 36.907 4.731.682 9.749 1.05 15.191 1.05 41.527-.142 62.08-22.564 97.541-37.956 16.044-6.747 28.744-10.403 45.979-12.898 15.223-2.183 9.241-6.831 2.24-15.137-5.84-6.889-10.999-14.259-16.47-21.401-9.1-11.879-18.199-23.728-27.27-35.577z" fill="#ffc369"/><path d="m122.996 358.02h266.036c18.907 14.485 38.239 28.772 56.862 43.568 2.439 1.929 10.432 10.205 13.153 6.747 1.729-2.239 1.927-10.063 2.409-13.267 3.912-25.455 15.394-49.182 28.064-71.405 13.267-23.243 22.395-39.911 22.48-67.663-.142-41.5-22.564-62.079-37.956-97.513-6.86-16.017-10.829-30.161-13.267-47.396-.426-2.92-1.163-10.347-5.727-7.994-2.268 1.162-7.029 5.698-9.524 7.597-18.794 14.457-37.673 28.858-56.494 43.315h-266.036c-13.549-10.404-27.127-20.778-40.677-31.182-6.86-5.329-13.805-11.396-20.778-16.413-11.423-8.221-10.006 1.021-11.14 10.092-3.033 24.888-15.564 50.174-27.895 71.858-13.293 23.245-22.421 39.884-22.506 67.636.142 41.528 22.565 62.08 37.984 97.541 6.492 15.62 9.724 27.469 12.643 44.079 3.26 18.54 7.653 10.263 17.83 2.098 3.515-2.806 7.229-5.471 10.828-8.191 14.571-11.17 29.142-22.338 43.711-33.507z" fill="#ffc369"/><path d="m432.176 390.846c4.62 3.571 9.184 7.144 13.719 10.743 2.439 1.929 10.432 10.205 13.153 6.747 1.729-2.239 1.927-10.063 2.409-13.267 3.912-25.455 15.394-49.182 28.064-71.405 13.266-23.244 22.394-39.912 22.479-67.664-.142-41.5-22.564-62.079-37.956-97.513-6.86-16.017-10.829-30.161-13.267-47.396-.426-2.92-1.163-10.347-5.727-7.994-2.268 1.162-7.029 5.698-9.524 7.597-4.365 3.374-8.759 6.747-13.153 10.092 2.495 13.096 6.152 24.774 11.68 37.701 15.392 35.434 37.814 56.013 37.956 97.513-.084 27.752-9.212 44.42-22.479 67.664-11.991 20.976-22.876 43.313-27.354 67.182z" fill="#ffaa5f"/><path d="m256 423.615c92.325 0 167.614-75.289 167.614-167.615 0-92.325-75.289-167.614-167.614-167.614s-167.614 75.289-167.614 167.614c0 92.326 75.289 167.615 167.614 167.615z" fill="#bed8fb"/><path d="m256 88.386c92.581 0 167.614 75.034 167.614 167.614 0 92.581-75.033 167.615-167.614 167.615-5.046 0-10.062-.227-14.995-.652 85.551-7.597 152.619-79.428 152.619-166.963 0-87.506-67.068-159.337-152.619-166.934 4.933-.454 9.949-.68 14.995-.68z" fill="#9dc6fb"/><path d="m416.159 206.393c4.848 15.676 7.455 32.344 7.455 49.606 0 17.292-2.607 33.96-7.455 49.636h83.283c7.286-14.371 12.558-29.367 12.558-49.635s-5.272-35.264-12.558-49.606h-83.283zm-403.601 0c-7.257 14.343-12.558 29.339-12.558 49.607 0 20.269 5.301 35.264 12.558 49.636h83.283c-4.848-15.676-7.455-32.344-7.455-49.636 0-17.263 2.608-33.931 7.455-49.606h-83.283z" fill="#dc4655"/><path d="m469.451 305.636h29.991c7.286-14.372 12.558-29.368 12.558-49.636s-5.272-35.264-12.558-49.606h-29.991c7.257 14.343 12.558 29.339 12.558 49.606 0 20.268-5.301 35.264-12.558 49.636z" fill="#d82e3d"/><path d="m305.636 416.16c-15.677 4.847-32.345 7.455-49.636 7.455-17.263 0-33.931-2.608-49.607-7.455v83.282c14.344 7.285 29.339 12.558 49.607 12.558s35.263-5.273 49.636-12.558zm0-403.603c-14.373-7.255-29.368-12.556-49.636-12.556s-35.263 5.301-49.607 12.557v83.283c15.677-4.848 32.345-7.455 49.607-7.455 17.291 0 33.959 2.607 49.636 7.455z" fill="#e6646e"/><path d="m305.636 416.16c-9.667 2.975-19.702 5.13-29.991 6.321v87.704c11.083-2.154 20.664-6.009 29.991-10.743zm-29.991-326.641v-87.705c11.083 2.154 20.664 6.038 29.991 10.743v83.283c-9.667-2.976-19.702-5.102-29.991-6.321z" fill="#dc4655"/><path d="m95.841 206.393h-29.991c-4.847 15.676-7.455 32.344-7.455 49.606 0 17.292 2.608 33.96 7.455 49.636h29.991c-4.848-15.676-7.455-32.344-7.455-49.636 0-17.262 2.607-33.93 7.455-49.606z" fill="#d82e3d"/><path d="m95.841 305.636h-29.991c7.768 25.115 21.317 47.707 39.033 66.246l18.113-13.861c-11.934-15.535-21.203-33.223-27.155-52.385zm0-99.243c5.952-19.163 15.222-36.851 27.155-52.385l-18.113-13.891c-17.716 18.539-31.266 41.132-39.033 66.275h29.991z" fill="#ffaa5f"/><path d="m213.734 362.527c-38.863-18.255-69.562-54.369-59.046-99.695 2.892-11.792 9.326-26.589 16.072-36.682 9.639-14.343 7.739 2.098 8.59 8.788 1.615 12.246 6.236 30.927 15.987 39.203 1.474 1.248 6.633 5.019 7.143 1.135.255-1.843-.426-7.541-.482-9.95-.368-14.258 1.191-30.926 4.054-44.93 8.788-41.046 29.453-72.71 69.62-88.499 1.956-.765 11.707-4.705 9.553.879-1.361 3.572-4.394 7.087-6.066 11.424-6.804 17.66-2.438 37.56 6.633 53.576 9.27 16.101 25.088 43.54 21.289 63.043-1.021 5.103-2.268 9.638 4.706 4.167 5.895-4.621 11.225-11.537 14.513-18.255 4.423-9.695 4.989-13.691 5.131-24.152.142-11.196 2.778-7.512 7.002-.312 8.362 14.23 14.088 25.115 18.057 41.358 3.713 15.647 3.969 31.379-1.077 46.772-7.88 23.613-26.419 39.969-47.396 52.13-6.236 2.948-12.502 5.329-18.767 7.115-8.73-3.855-20.976-4.422-31.237-4.648-11.735-.284-21.43-.624-34.753 1.615-3.175-1.219-6.35-2.579-9.526-4.082z" fill="#e6646e"/><path d="m307.081 260.819c3.799-19.503-12.02-46.942-21.289-63.043-9.07-16.017-13.436-35.916-6.633-53.576 1.673-4.337 4.705-7.852 6.066-11.424 2.154-5.584-7.597-1.644-9.553-.879-13.012 5.131-23.982 11.906-33.138 20.127-3.175 15.534 1.134 32.06 8.901 45.752 8.22 14.286 25.058 35.179 26.447 54.596 1.87 26.447 25.059 19.389 28.432 13.89-.112-1.248.342-3.289.767-5.443zm15.053 2.807c3.713 15.647 3.968 31.379-1.078 46.772-7.88 23.613-26.419 39.969-47.396 52.13-2.126.992-4.252 1.928-6.378 2.807 7.767.481 15.761 1.559 21.968 4.309 6.265-1.786 12.53-4.167 18.767-7.115 20.977-12.161 39.516-28.517 47.396-52.13 5.046-15.393 4.79-31.124 1.077-46.772-3.969-16.243-9.694-27.128-18.057-41.358-4.224-7.2-6.86-10.885-7.002.312-.142 10.461-.708 14.457-5.131 24.152-1.615 3.288-3.713 6.633-6.15 9.723.707 2.266 1.388 4.646 1.984 7.17z" fill="#dc4655"/><path d="m289.25 369.642c4.224-14.089.143-34.073-11.479-47.282-9.581-11.197-9.496-28.177-6.01-41.755.595-2.409 2.239-5.868 2.522-7.881.567-3.969-5.216-1.843-7.143-1.19-36 12.246-51.251 38.467-48.614 75.8.425 5.471 2.069 12.585 4.733 19.275 21.998 8.391 43.995 9.355 65.991 3.033z" fill="#ffe17d"/><path d="m289.25 369.642c4.224-14.089.143-34.073-11.479-47.282-9.581-11.197-9.496-28.177-6.01-41.755.595-2.409 2.239-5.868 2.522-7.881.567-3.969-5.216-1.843-7.143-1.19-13.238 4.508-23.67 10.914-31.436 19.049-1.39 12.076.142 25.059 7.71 34.3 11.396 13.578 15.534 33.959 11.707 48.7 11.396.651 22.763-.681 34.129-3.941z" fill="#ffc369"/></g></svg>