<svg id="Capa_1" enable-background="new 0 0 512 512" height="512" viewBox="0 0 512 512" width="512" xmlns="http://www.w3.org/2000/svg"><g><path d="m414.919 232.98h-30v-87.983c0-38.294-31.154-69.448-69.448-69.448h-48.523v-30h48.523c54.836 0 99.448 44.612 99.448 99.448z" fill="#202a58"/><path d="m205.902 95.071h48.523c19.066 0 34.523-15.456 34.523-34.523 0-19.066-15.456-34.523-34.523-34.523h-48.523z" fill="#e43135"/><path d="m449.84 420.12h-99.85l9.16-123.1 9.669-15-7.439-15 1.46-19.61c1.44-19.42 17.61-34.43 37.08-34.43 9.74 0 18.64 3.75 25.3 9.93s11.06 14.79 11.78 24.5l1.46 19.61-7.958 15 10.188 15z" fill="#2a4979"/><path d="m440.69 297.02h-81.54l2.23-30h77.08z" fill="#202a58"/><path d="m79.468 62.628h91.281v30h-91.281z" fill="#2a4979" transform="matrix(.949 -.316 .316 .949 -18.127 43.544)"/><path d="m219.9 0v131.57h-69.04v-62.52l-88.7-34.53v-34.52z" fill="#2a4979"/><path d="m185.38 0h34.52v131.57h-34.52z" fill="#202a58"/><path d="m288.95 290.52-14 34.52 14 34.53v152.43h-207.14v-152.43l14-34.53-14-34.52v-103.9c0-38.14 30.91-69.05 69.05-69.05h69.04c19.06 0 36.33 7.73 48.82 20.22 12.5 12.5 20.23 29.76 20.23 48.83z" fill="#fd6b53"/><path d="m288.95 290.52-14 34.52 14 34.53v152.43h-103.57v-394.43h34.52c19.06 0 36.33 7.73 48.82 20.22 12.5 12.5 20.23 29.76 20.23 48.83z" fill="#e43135"/><path d="m81.81 290.52h207.14v69.05h-207.14z" fill="#f0f7ff"/><path d="m185.38 290.52h103.57v69.05h-103.57z" fill="#dfe7f4"/></g></svg>