<svg id="Capa_1" enable-background="new 0 0 509.849 509.849" height="512" viewBox="0 0 509.849 509.849" width="512" xmlns="http://www.w3.org/2000/svg"><g><g><g><path d="m424.253 397.949c-5.216-12.163-15.077-21.737-27.389-26.592l-86.63-34.16c-4.737-1.868-7.85-6.442-7.85-11.534v-57.555h-94.919v57.555c0 5.092-3.113 9.666-7.85 11.534l-86.63 34.16c-12.312 4.855-22.173 14.429-27.389 26.592-12.963 30.227-19.647 62.773-19.647 95.662 0 4.826 3.912 8.737 8.737 8.737h360.476c4.826 0 8.737-3.912 8.737-8.737.001-32.889-6.683-65.435-19.646-95.662z" fill="#e0aea2"/></g></g><g><g><path d="m424.253 397.949c-5.216-12.163-15.077-21.737-27.389-26.592l-86.629-34.16c-4.737-1.868-7.85-6.442-7.85-11.534v-28.685h-28.541v39.15c0 5.092 3.113 9.666 7.85 11.534l86.63 34.16c12.312 4.855 22.173 14.429 27.389 26.592 12.736 29.697 19.395 61.634 19.625 93.935h19.826c4.826 0 8.737-3.912 8.737-8.737-.001-32.89-6.685-65.436-19.648-95.663z" fill="#d79b8c"/></g></g><g><g><circle cx="354.48" cy="185.018" fill="#e0aea2" r="28.155"/></g></g><g><g><path d="m424.253 397.949c-5.216-12.163-15.077-21.738-27.389-26.592l-83.098-32.767-58.842 60-58.841-60-83.098 32.767c-12.312 4.855-22.173 14.429-27.389 26.592-12.963 30.227-19.647 62.773-19.647 95.662 0 4.826 3.912 8.737 8.737 8.737h360.476c4.826 0 8.737-3.912 8.737-8.737.001-32.889-6.683-65.435-19.646-95.662z" fill="#dc4955"/></g></g><g><g><path d="m424.253 397.949c-5.216-12.163-15.077-21.738-27.389-26.592l-83.098-32.767-15.438 15.742 68.536 27.025c12.312 4.855 22.173 14.429 27.389 26.592 12.797 29.84 19.462 61.941 19.631 94.4h21.279c4.826 0 8.737-3.912 8.737-8.737 0-32.89-6.684-65.436-19.647-95.663z" fill="#d82f3c"/></g></g><g><g><path d="m68.038 461.964c-1.38 10.469-2.089 21.039-2.089 31.647 0 4.825 3.912 8.737 8.737 8.737h360.476c4.826 0 8.737-3.912 8.737-8.737 0-10.608-.717-21.177-2.096-31.647z" fill="#f7d958"/></g></g><g><g><circle cx="156.605" cy="185.018" fill="#e0aea2" r="28.155"/></g></g><g><g><path d="m318 69.804c-12.571-7.222-31.551-11.023-45.971-12.978-11.34-1.537-22.82-1.537-34.159 0-14.42 1.954-33.4 5.756-45.971 12.978-4.646 2.669-8.258 6.808-10.286 11.767-12.096 29.579-58.799 159.833 30.67 216.531 25.97 16.457 59.361 16.457 85.331 0 89.47-56.697 42.766-186.951 30.67-216.531-2.026-4.959-5.638-9.098-10.284-11.767z" fill="#e0aea2"/></g></g><g><g><path d="m328.286 81.571c-2.028-4.959-5.64-9.098-10.286-11.767-12.571-7.222-31.551-11.023-45.971-12.978-10.405-1.41-20.926-1.51-31.35-.333.937.106 1.874.206 2.809.333 14.42 1.954 33.4 5.756 45.971 12.978 4.646 2.669 8.258 6.808 10.286 11.767 12.096 29.579 58.799 159.833-30.67 216.531-8.805 5.579-18.463 9.261-28.395 11.058 19.364 3.502 39.771-.18 56.936-11.058 89.469-56.698 42.766-186.951 30.67-216.531z" fill="#d79b8c"/></g></g><g><g><path d="m263.987 13.665h-16.21c-54.574 0-98.814 44.241-98.814 98.814v23.98h213.838v-23.98c.001-54.574-44.24-98.814-98.814-98.814z" fill="#e27f86"/></g></g><g><g><path d="m263.987 13.665h-16.21c-2.319 0-4.617.086-6.895.243 51.356 3.541 91.919 46.316 91.919 98.571v23.98h30v-23.98c0-54.574-44.24-98.814-98.814-98.814z" fill="#df646e"/></g></g><g><g><path d="m375.75 166.894h-241.651c-7.9 0-14.305-6.405-14.305-14.305v-1.826c0-7.9 6.404-14.305 14.305-14.305h241.651c7.9 0 14.305 6.404 14.305 14.305v1.826c0 7.901-6.405 14.305-14.305 14.305z" fill="#df646e"/></g></g><g><g><path d="m250.924 396.126-35.825 29.343-35.825-76.525 28.622-25.298z" fill="#df646e"/></g></g><g><g><path d="m260.924 396.126 35.825 29.343 35.826-76.525-28.622-25.298z" fill="#df646e"/></g></g><g><g><path d="m281.195 136.459h-52.542l-16.024-103.322c-2.089-13.474 8.333-25.637 21.968-25.637h40.654c13.636 0 24.057 12.163 21.968 25.637z" fill="#dc4955"/></g></g><g><g><path d="m216.205 56.193 6.555 42.265h64.329l6.555-42.265z" fill="#f7d958"/></g></g><path d="m431.146 394.993c-5.963-13.905-17.456-25.063-31.531-30.613 0 0-68.491-26.967-68.856-27.05l-20.875-18.451v-20.14c19.059-14.297 32.716-33.136 40.653-56.131 2.398-6.949 4.263-14.288 5.613-21.977 18.888-.876 33.985-16.513 33.985-35.613 0-4.791-.988-9.551-2.848-13.938 6.16-3.858 10.267-10.701 10.267-18.49v-1.826c0-12.023-9.782-21.805-21.805-21.805h-5.448v-16.48c0-44.696-28.24-84.902-70.271-100.047-.258-.093-.518-.169-.779-.232-.452-.619-.921-1.228-1.424-1.815-5.655-6.6-13.884-10.385-22.575-10.385h-40.655c-8.692 0-16.921 3.786-22.576 10.386-.782.913-1.497 1.869-2.156 2.857-.413.087-.825.202-1.231.362-19.588 7.761-36.302 21.054-48.335 38.441-12.322 17.806-18.835 38.703-18.835 60.433v16.48h-7.365c-12.023 0-21.805 9.782-21.805 21.805v1.826c0 8.2 4.552 15.355 11.261 19.077-1.702 4.223-2.604 8.773-2.604 13.351 0 18.692 14.462 34.061 32.783 35.529 1.335 7.622 3.175 14.9 5.539 21.797 7.917 23.096 21.586 42.01 40.692 56.357v21.945l-17.058 15.077-72.673 28.656c-14.075 5.55-25.567 16.708-31.531 30.614-13.439 31.339-20.253 64.519-20.253 98.618 0 8.953 7.284 16.237 16.237 16.237h360.477c8.953 0 16.237-7.284 16.237-16.237-.001-34.099-6.816-67.279-20.255-98.618zm-13.786 5.912c7.425 17.313 12.681 35.227 15.767 53.559h-65.31c-.366-3.073-.765-6.04-1.192-8.818-.629-4.093-4.455-6.901-8.553-6.273-4.094.629-6.902 4.459-6.272 8.553.325 2.111.627 4.303.909 6.538h-89.914v-47.112l29.202 23.919c1.353 1.108 3.037 1.698 4.752 1.698.554 0 1.111-.061 1.661-.186 2.256-.513 4.15-2.038 5.131-4.134l33.999-72.623 56.572 22.307c10.378 4.093 18.852 12.32 23.248 22.572zm-62.078 93.944h-92.487v-25.385h91.447c.779 9.684 1.142 18.944 1.04 25.385zm-149.209-159.582 35.111 59.143-23.379 19.149-29.358-62.711zm8.892-14.406v-12.605c12.494 6.431 26.237 9.659 39.985 9.659 13.73 0 27.454-3.22 39.934-9.633v15.364c0 .182.014.36.027.538l-38.987 65.672zm90.811 14.406 17.626 15.581-29.358 62.711-23.379-19.149zm52.331-129.933c.813-9.831.863-20.156.136-30.94h14.092c.121.341.258.678.431 1.007 1.572 2.981 2.369 6.216 2.369 9.616 0 10.15-7.365 18.595-17.028 20.317zm-2.806-92.855v16.48h-65.353l14.683-94.672c.177-1.145.282-2.292.326-3.436 30.501 15.339 50.344 46.904 50.344 81.628zm-74.639-21.521h-51.475l-4.229-27.265h59.932zm-45.582 38.001-3.567-23.001h46.823l-3.567 23.001zm-11.669-108.813c2.802-3.27 6.879-5.146 11.186-5.146h40.655c4.306 0 8.383 1.875 11.186 5.146 2.802 3.271 4.031 7.586 3.371 11.842l-2.591 16.705h-64.585l-2.591-16.705c-.661-4.256.568-8.572 3.369-11.842zm-66.947 92.333c0-18.665 5.591-36.611 16.17-51.896 8.399-12.137 19.448-21.95 32.316-28.78.058.828.14 1.656.269 2.484l14.682 94.672h-63.437zm-20.514 72.539c0-3.4.796-6.634 2.367-9.614.174-.33.311-.668.432-1.009h12.903c-.721 10.691-.673 20.929.12 30.684-9.061-2.185-15.822-10.339-15.822-20.061zm30.749-10.624h50.628c4.142 0 7.5-3.358 7.5-7.5s-3.358-7.5-7.5-7.5h-83.229c-3.752 0-6.805-3.053-6.805-6.805v-1.826c0-3.752 3.053-6.805 6.805-6.805h241.652c3.752 0 6.805 3.053 6.805 6.805v1.826c0 3.752-3.053 6.805-6.805 6.805h-128.423c-4.142 0-7.5 3.358-7.5 7.5s3.358 7.5 7.5 7.5h95.872c3.948 54.517-12.72 94.003-49.598 117.373-23.48 14.878-53.823 14.879-77.302 0-36.883-23.373-53.551-62.857-49.6-117.373zm-74.21 226.511c4.396-10.252 12.87-18.479 23.248-22.571l58.26-22.973 34.31 73.288c.981 2.096 2.874 3.622 5.131 4.134.55.125 1.107.186 1.661.186 1.716 0 3.399-.589 4.752-1.698l27.943-22.888v46.08h-19.864c-4.142 0-7.5 3.358-7.5 7.5s3.358 7.5 7.5 7.5h19.865v25.385h-93.228c-.102-6.44.261-15.7 1.04-25.385h42.323c4.142 0 7.5-3.358 7.5-7.5s-3.358-7.5-7.5-7.5h-40.79c.282-2.235.585-4.427.909-6.539.63-4.094-2.179-7.923-6.272-8.553-4.095-.63-7.923 2.178-8.553 6.272-.427 2.778-.826 5.746-1.192 8.819h-65.31c3.086-18.33 8.342-36.244 15.767-53.557zm-19.04 92.706c0-8.109.413-16.163 1.23-24.147h65.89c-.725 9.339-1.101 18.476-1.003 25.385h-64.88c-.682 0-1.237-.556-1.237-1.238zm361.714 1.238h-64.88c.098-6.909-.278-16.046-1.003-25.385h65.89c.817 7.985 1.23 16.038 1.23 24.148 0 .682-.555 1.237-1.237 1.237z"/></g></svg>