<svg id="Capa_1" enable-background="new 0 0 512 512" height="512" viewBox="0 0 512 512" width="512" xmlns="http://www.w3.org/2000/svg"><g><g clip-rule="evenodd" fill-rule="evenodd"><path d="m234.074 85.749v-75.742c0-5.499-4.507-10.007-10.007-10.007h-12.87c-5.499 0-10.006 4.508-10.006 10.007v75.742z" fill="#294b64"/><path d="m249.069 112.764v-17.008c0-8.249-6.746-14.995-14.995-14.995h-32.883c-8.249 0-14.995 6.746-14.995 14.995v17.008l28.801 3.997z" fill="#477b9e"/><path d="m316.96 112.764v-17.008c0-8.249-6.746-14.995-14.995-14.995h-7.882c-8.248 0-14.995 6.746-14.995 14.995v17.008l19.05 3.997z" fill="#294b64"/><path d="m368.494 464.774v-320.375c0-17.406-12.444-31.636-27.666-31.636h-169.627c-15.223 0-27.695 14.229-27.695 31.636v320.375z" fill="#365e7d"/><path d="m125.137 512h261.755c14.372 0 26.107-11.735 26.107-26.107 0-14.372-11.735-26.136-26.107-26.136h-261.755c-14.372 0-26.136 11.764-26.136 26.136 0 14.372 11.764 26.107 26.136 26.107z" fill="#477b9e"/><path d="m356.9 512h29.991c14.372 0 26.107-11.735 26.107-26.107 0-14.372-11.735-26.136-26.107-26.136h-29.991c14.343 0 26.108 11.764 26.108 26.136.001 14.372-11.765 26.107-26.108 26.107z" fill="#3f6d8e"/><path d="m368.494 459.757v-315.358c0-17.406-12.444-31.636-27.666-31.636h-30.02c15.251 0 27.695 14.229 27.695 31.636v315.357h29.991z" fill="#294b64"/><path d="m249.069 112.764v-17.008c0-8.249-6.746-14.995-14.995-14.995h-29.992c8.249 0 14.997 6.746 14.997 14.995v17.008z" fill="#3f6d8e"/><path d="m183.248 146.525h145.504c3.316 0 6.01 2.693 6.01 5.98v129.998c0 3.317-2.693 6.01-6.01 6.01h-145.504c-3.288 0-5.981-2.692-5.981-6.01v-129.997c0-3.287 2.693-5.981 5.981-5.981z" fill="#cdf5a0"/><path d="m298.761 146.525h29.991c3.316 0 6.01 2.693 6.01 5.98v129.998c0 3.317-2.693 6.01-6.01 6.01h-29.991c3.289 0 5.981-2.692 5.981-6.01v-129.997c0-3.287-2.692-5.981-5.981-5.981z" fill="#b4e6a0"/><path d="m195.012 319.016h55.985c9.779 0 17.744 7.994 17.744 17.744 0 9.78-7.965 17.745-17.744 17.745h-55.985c-9.779 0-17.745-7.965-17.745-17.745 0-9.75 7.965-17.744 17.745-17.744zm0 70.499h55.985c9.779 0 17.744 7.993 17.744 17.744 0 9.779-7.965 17.745-17.744 17.745h-55.985c-9.779 0-17.745-7.966-17.745-17.745 0-9.751 7.965-17.744 17.745-17.744z" fill="#b3e59f"/><path d="m221.007 319.016h29.99c9.779 0 17.744 7.994 17.744 17.744 0 9.78-7.965 17.745-17.744 17.745h-29.99c9.751 0 17.744-7.965 17.744-17.745 0-9.75-7.993-17.744-17.744-17.744zm0 70.499h29.99c9.779 0 17.744 7.993 17.744 17.744 0 9.779-7.965 17.745-17.744 17.745h-29.99c9.751 0 17.744-7.966 17.744-17.745 0-9.751-7.993-17.744-17.744-17.744z" fill="#95d6a4"/></g><path d="m209.383 195.025c-4.138 0-7.512-3.373-7.512-7.512s3.374-7.512 7.512-7.512h93.234c4.139 0 7.512 3.373 7.512 7.512s-3.373 7.512-7.512 7.512zm0 59.984c-4.138 0-7.512-3.346-7.512-7.484 0-4.166 3.374-7.512 7.512-7.512h69.252c4.139 0 7.483 3.346 7.483 7.512 0 4.139-3.345 7.484-7.483 7.484zm0-29.991c-4.138 0-7.512-3.373-7.512-7.512 0-4.14 3.374-7.484 7.512-7.484h93.234c4.139 0 7.512 3.345 7.512 7.484s-3.373 7.512-7.512 7.512z" fill="#fff"/></g></svg>