<svg id="Capa_1" enable-background="new 0 0 512 512" height="512" viewBox="0 0 512 512" width="512" xmlns="http://www.w3.org/2000/svg"><g clip-rule="evenodd" fill-rule="evenodd"><path d="m6.009 473.293h500.01c3.289 0 5.981-2.723 5.981-6.01v-201.008c0-3.287-2.692-6.01-5.981-6.01h-500.01c-3.316 0-6.009 2.723-6.009 6.01v201.008c0 3.287 2.693 6.01 6.009 6.01z" fill="#f6e7c6"/><path d="m435.69 473.293h70.329c3.289 0 5.981-2.723 5.981-6.01v-201.008c0-3.287-2.692-6.01-5.981-6.01h-70.329zm-312.24-213.027h-117.441c-3.316 0-6.009 2.723-6.009 6.01v50.004h117.44c3.317 0 6.01-2.693 6.01-6.01zm-117.441 213.027h117.441v-106.018c0-3.287-2.693-5.982-6.01-5.982h-117.44v105.99c0 3.287 2.693 6.01 6.009 6.01zm162.428 0h219.999v-106.018c0-3.287-2.693-5.982-5.981-5.982h-208.009c-3.288 0-6.009 2.695-6.009 5.982z" fill="#b3e59f"/><path d="m476 473.293h30.02c3.289 0 5.981-2.723 5.981-6.01v-201.008c0-3.287-2.692-6.01-5.981-6.01h-30.02c3.317 0 6.01 2.723 6.01 6.01v201.008c-.001 3.287-2.694 6.01-6.01 6.01zm-352.55-213.027h-30.019v50.004c0 3.316-2.693 6.01-5.981 6.01h29.991c3.317 0 6.01-2.693 6.01-6.01v-50.004zm-30.019 213.027h30.019v-106.018c0-3.287-2.693-5.982-6.01-5.982h-29.99c3.288 0 5.981 2.695 5.981 5.982zm265.014 0h29.991v-106.018c0-3.287-2.693-5.982-5.981-5.982h-30.019c3.317 0 6.009 2.695 6.009 5.982z" fill="#95d6a4"/><path d="m256 38.707c71.888 0 130.169 58.281 130.169 130.168 0 67.693-83.907 165.66-123.961 216.147-6.208 7.822-6.208 7.822-12.416 0-40.025-50.486-123.961-148.424-123.961-216.147 0-71.887 58.281-130.168 130.169-130.168z" fill="#9dc6fb"/><path d="m219.234 271.35c-32.202-15.137-57.686-45.07-48.955-82.66 2.41-9.779 7.739-22.053 13.351-30.416 7.965-11.904 6.406 1.73 7.115 7.285 1.332 10.148 5.159 25.654 13.238 32.514 1.219 1.021 5.499 4.168 5.953.936.198-1.531-.369-6.264-.425-8.248-.283-11.85.992-25.654 3.374-37.275 7.285-34.018 24.407-60.295 57.742-73.391 1.616-.623 9.695-3.883 7.937.738-1.162 2.975-3.657 5.895-5.046 9.467-5.641 14.654-2.041 31.152 5.5 44.447 7.682 13.324 20.807 36.113 17.632 52.271-.822 4.252-1.843 7.994 3.912 3.459 4.875-3.828 9.326-9.582 12.048-15.139 3.657-8.049 4.139-11.365 4.252-20.039.113-9.299 2.296-6.209 5.811-.256 6.945 11.791 11.679 20.834 14.967 34.299 3.09 12.982 3.317 26.021-.878 38.809-6.548 19.559-21.912 33.137-39.317 43.199-5.187 2.467-10.374 4.451-15.562 5.924-7.229-3.203-17.405-3.684-25.909-3.855-9.751-.227-17.773-.537-28.829 1.334-2.638-.993-5.274-2.128-7.911-3.403z" fill="#e6646e"/><path d="m296.649 187.018c3.175-16.158-9.95-38.947-17.632-52.271-7.54-13.295-11.14-29.793-5.5-44.447 1.39-3.572 3.884-6.492 5.046-9.467 1.757-4.621-6.322-1.361-7.937-.738-10.8 4.252-19.9 9.865-27.496 16.697-2.636 12.896.935 26.588 7.398 37.955 6.803 11.82 20.778 29.17 21.912 45.27 1.56 21.941 20.807 16.072 23.585 11.51-.085-1.05.284-2.724.624-4.509zm12.501 2.324c3.09 12.982 3.289 26.021-.907 38.809-6.52 19.559-21.884 33.137-39.289 43.199-1.758.85-3.544 1.615-5.301 2.353 6.463.397 13.096 1.303 18.227 3.57 5.188-1.473 10.375-3.457 15.562-5.924 17.405-10.062 32.769-23.641 39.317-43.199 4.195-12.787 3.968-25.826.878-38.809-3.288-13.465-8.022-22.508-14.967-34.299-3.515-5.953-5.698-9.043-5.811.256-.113 8.674-.595 11.99-4.252 20.039-1.332 2.723-3.09 5.5-5.103 8.051.598 1.901 1.136 3.856 1.646 5.954z" fill="#dc4655"/><path d="m281.881 277.273c3.515-11.678.113-28.262-9.525-39.203-7.965-9.297-7.88-23.387-4.989-34.641.511-2.012 1.871-4.848 2.098-6.547.482-3.26-4.337-1.531-5.924-.992-29.849 10.176-42.52 31.918-40.337 62.873.369 4.535 1.729 10.432 3.94 15.988 18.254 6.944 36.481 7.767 54.737 2.522z" fill="#ffe17d"/><path d="m281.881 277.273c3.515-11.678.113-28.262-9.525-39.203-7.965-9.297-7.88-23.387-4.989-34.641.511-2.012 1.871-4.848 2.098-6.547.482-3.26-4.337-1.531-5.924-.992-10.999 3.74-19.644 9.041-26.079 15.816-1.134 10.008.142 20.779 6.406 28.461 9.439 11.254 12.869 28.148 9.723 40.365 9.41.54 18.85-.536 28.29-3.259z" fill="#ffc369"/><path d="m256 38.707c71.888 0 130.169 58.281 130.169 130.168 0 67.693-83.907 165.66-123.961 216.147-6.208 7.822-6.208 7.822-12.416 0-2.721-3.459-5.669-7.145-8.787-11 42.322-52.754 115.173-142.074 115.173-205.147 0-66.812-50.344-121.863-115.173-129.289 4.932-.566 9.921-.879 14.995-.879z" fill="#80b4fb"/></g></svg>