<svg id="Capa_1" enable-background="new 0 0 512 512" height="512" viewBox="0 0 512 512" width="512" xmlns="http://www.w3.org/2000/svg"><g><path d="m411.95 183.971c0-4.139 3.345-7.483 7.512-7.483 4.139 0 7.483 3.345 7.483 7.483 0 36.029-14.598 68.628-38.183 92.212-23.613 23.613-56.212 38.211-92.212 38.211-4.14 0-7.513-3.373-7.513-7.512s3.373-7.512 7.513-7.512c31.861 0 60.719-12.897 81.609-33.79 20.865-20.89 33.791-49.719 33.791-81.609z" fill="#365e7d"/><g clip-rule="evenodd" fill-rule="evenodd"><path d="m138.148 216.173h158.402v123.62h-158.402z" fill="#365e7d"/><path d="m265.766 216.173h30.785v123.62h-30.785z" fill="#294b64"/><path d="m217.35 294.013c80.959 0 147.006-66.048 147.006-147.007-.001-80.958-66.047-147.006-147.006-147.006s-147.007 66.048-147.007 147.006c0 80.959 66.048 147.007 147.007 147.007z" fill="#477b9e"/><path d="m217.35 0c81.186 0 147.006 65.822 147.006 147.006 0 81.186-65.82 147.007-147.006 147.007-5.074 0-10.063-.255-14.996-.766 74.127-7.512 131.983-70.13 131.983-146.241s-57.856-138.729-131.983-146.241c4.932-.51 9.921-.765 14.996-.765z" fill="#3f6d8e"/><path d="m217.35 191.227c24.35 0 44.221-19.871 44.221-44.221s-19.871-44.221-44.221-44.221-44.221 19.871-44.221 44.221 19.871 44.221 44.221 44.221z" fill="#365e7d"/><path d="m217.35 102.785c24.435 0 44.221 19.787 44.221 44.221 0 24.435-19.786 44.221-44.221 44.221-5.272 0-10.318-.935-14.996-2.608 17.037-6.151 29.226-22.451 29.226-41.613s-12.189-35.461-29.226-41.613c4.677-1.701 9.723-2.608 14.996-2.608z" fill="#294b64"/><path d="m100.334 512h234.003c16.525 0 30.019-13.493 30.019-29.991v-112.225c0-16.498-13.493-29.991-30.019-29.991h-234.003c-16.498 0-29.991 13.493-29.991 29.991v112.225c0 16.498 13.493 29.991 29.991 29.991z" fill="#e6646e"/><path d="m304.347 512h29.99c16.525 0 30.019-13.493 30.019-29.991v-112.225c0-16.498-13.493-29.991-30.019-29.991h-29.99c16.497 0 29.99 13.493 29.99 29.991v112.225c0 16.498-13.493 29.991-29.99 29.991z" fill="#dc4655"/></g><path d="m213.862 462.138c0 4.139-3.345 7.512-7.483 7.512-4.167 0-7.512-3.374-7.512-7.512 0-24.151 0-48.331 0-72.483 0-4.138 3.345-7.512 7.512-7.512h32.004c7.059 0 13.465 2.892 18.113 7.512 4.621 4.649 7.512 11.055 7.512 18.114 0 7.058-2.891 13.464-7.512 18.113-3.118 3.118-7.029 5.414-11.395 6.604l17.547 25.399c2.353 3.402 1.502 8.079-1.9 10.403-3.401 2.353-8.05 1.502-10.403-1.9l-22.819-32.996h-13.663v28.746zm-43.172-72.483c0-4.138 3.345-7.512 7.512-7.512 4.139 0 7.483 3.374 7.483 7.512v72.483c0 4.139-3.345 7.512-7.483 7.512-4.167 0-7.512-3.374-7.512-7.512zm153.981-7.512c4.139 0 7.483 3.374 7.483 7.512 0 4.139-3.345 7.483-7.483 7.483h-32.486v21.261h17.576c4.139 0 7.483 3.345 7.483 7.483 0 4.167-3.345 7.512-7.483 7.512h-17.576v21.26h32.486c4.139 0 7.483 3.345 7.483 7.483 0 4.139-3.345 7.512-7.483 7.512h-39.998c-4.139 0-7.483-3.374-7.483-7.512v-72.483c0-4.138 3.345-7.512 7.483-7.512h39.998zm-207.131 79.995c0 4.139-3.373 7.512-7.512 7.512s-7.483-3.374-7.483-7.512v-72.483c0-4.138 3.345-7.512 7.483-7.512h39.97c4.167 0 7.512 3.374 7.512 7.512 0 4.139-3.345 7.483-7.512 7.483h-32.458v21.261h17.575c4.139 0 7.483 3.345 7.483 7.483 0 4.167-3.345 7.512-7.483 7.512h-17.575zm120.843-65h-24.52v21.261h24.52c2.92 0 5.556-1.191 7.483-3.118 1.956-1.928 3.146-4.592 3.146-7.512s-1.19-5.557-3.146-7.484c-1.927-1.928-4.563-3.147-7.483-3.147z" fill="#f6faff"/><path clip-rule="evenodd" d="m419.462 183.971c12.218 0 22.195-9.95 22.195-22.195 0-12.218-9.978-22.196-22.195-22.196-12.245 0-22.224 9.978-22.224 22.196 0 12.245 9.979 22.195 22.224 22.195z" fill="#294b64" fill-rule="evenodd"/></g></svg>